<svg width="316" height="58" viewBox="0 0 316 58" fill="none" xmlns="http://www.w3.org/2000/svg">
<mask id="mask0_2_27" style="mask-type:alpha" maskUnits="userSpaceOnUse" x="0" y="0" width="316" height="58">
<path opacity="0.1" d="M0 56.557C0.0940266 56.0399 0.235067 55.5932 0.42312 55.2171C0.658186 54.841 0.822733 54.4414 0.91676 54.0183C1.33988 53.031 1.81001 52.1613 2.32716 51.4091C2.42119 51.033 2.53872 50.7039 2.67976 50.4218C2.86781 50.1397 3.05587 49.8811 3.24392 49.6461C3.526 48.9879 3.73756 48.3767 3.8786 47.8125C4.06665 47.2014 4.32523 46.5902 4.65432 45.979C5.21848 44.8977 5.78264 43.7929 6.3468 42.6646C6.95797 41.4893 7.54564 40.3374 8.1098 39.2091C8.39188 38.692 8.65045 38.1748 8.88552 37.6577C9.1676 37.0935 9.47318 36.5529 9.80228 36.0357C9.8963 35.6596 9.99033 35.2835 10.0844 34.9074C10.1784 34.5313 10.2959 34.1552 10.437 33.7791C10.3899 33.497 10.4134 33.2854 10.5075 33.1444C10.6015 32.9563 10.6955 32.7683 10.7896 32.5802L11.0011 31.734C11.1422 31.2168 11.3302 30.7702 11.5653 30.3941C11.8003 29.971 11.9884 29.5244 12.1294 29.0542C12.2705 28.9602 12.388 28.8192 12.482 28.6311C12.5761 28.4431 12.6701 28.255 12.7641 28.0669C13.1402 27.0327 13.5163 26.0219 13.8924 25.0346C14.2685 24.0473 14.6446 23.013 15.0208 21.9317C15.2558 21.3205 15.4674 20.8739 15.6554 20.5918C15.8435 20.2627 15.9845 19.8631 16.0786 19.393C16.5487 18.3117 17.0188 17.2539 17.489 16.2196C17.9591 15.1383 18.4527 14.057 18.9699 12.9757C19.299 12.1764 19.6281 11.4712 19.9572 10.8601C20.1452 10.484 20.3568 10.1314 20.5918 9.80228C20.8269 9.42617 20.9914 9.07357 21.0855 8.74448C21.1795 8.4624 21.1795 8.15681 21.0855 7.82772C20.5683 7.87473 20.0982 8.03928 19.6751 8.32136C19.299 8.60344 18.8523 8.88552 18.3352 9.1676C18.1001 9.30864 17.8416 9.47318 17.5595 9.66124C17.3714 9.8963 17.2304 10.0373 17.1364 10.0844C17.0893 10.0844 17.0188 10.1314 16.9248 10.2254C16.5017 10.4605 16.055 10.766 15.5849 11.1422C15.1618 11.4712 14.7152 11.7533 14.245 11.9884C13.8219 12.3645 13.3753 12.7641 12.9052 13.1872C12.435 13.5633 11.9884 13.9394 11.5653 14.3156C11.3772 14.6446 11.0716 14.9267 10.6485 15.1618C10.4134 15.3969 10.1784 15.6554 9.94332 15.9375C9.75526 16.2196 9.5437 16.4782 9.30864 16.7132C9.26162 17.3244 9.12058 17.9121 8.88552 18.4762C8.65045 18.9934 8.41538 19.5105 8.18032 20.0277C8.08629 20.2627 8.01577 20.4508 7.96876 20.5918C7.92174 20.7329 7.87473 20.8974 7.82772 21.0855C8.01577 21.1795 8.18032 21.156 8.32136 21.015C8.50941 20.8269 8.69746 20.7564 8.88552 20.8034C9.5437 20.5213 10.1079 20.1687 10.578 19.7456C11.0481 19.3225 11.5418 18.9229 12.0589 18.5468C12.529 18.1706 12.9522 17.7475 13.3283 17.2774C13.7514 16.7602 14.151 16.2431 14.5271 15.726C14.9502 15.3028 15.2088 15.0443 15.3028 14.9502C15.3969 14.8092 15.5614 14.7387 15.7965 14.7387C16.0315 14.9737 16.1491 15.1383 16.1491 15.2323C16.1961 15.3263 16.1961 15.4204 16.1491 15.5144C15.6789 16.6427 15.2323 17.536 14.8092 18.1942C14.3861 18.8053 13.9865 19.4635 13.6104 20.1687C13.0932 20.6859 12.7171 21.1795 12.482 21.6496C12.247 22.0728 11.9649 22.4724 11.6358 22.8485C11.4007 23.2716 11.1657 23.6947 10.9306 24.1178C10.6955 24.4939 10.3899 24.7995 10.0138 25.0346C9.1676 25.2226 8.50941 25.2226 8.03928 25.0346C7.61616 24.7995 7.24005 24.6115 6.91096 24.4704C6.7229 24.3764 6.53485 24.3294 6.3468 24.3294C6.15874 24.2824 5.97069 24.1884 5.78264 24.0473C5.54757 23.7652 5.38302 23.5772 5.289 23.4832C5.19497 23.3421 5.17146 23.1776 5.21848 22.9895C5.12445 22.8955 5.03042 22.7074 4.9364 22.4254C4.84237 22.0963 4.79536 21.8142 4.79536 21.5791C4.98341 21.109 5.05393 20.8504 5.00692 20.8034C5.00692 20.7094 5.03042 20.6153 5.07744 20.5213C5.12445 20.3803 5.17146 20.2392 5.21848 20.0982C5.3125 19.9572 5.38302 19.8161 5.43004 19.6751C5.52406 19.487 5.57108 19.299 5.57108 19.1109C5.61809 18.8758 5.68861 18.6408 5.78264 18.4057C5.92368 17.9826 6.18225 17.5125 6.55836 16.9953C6.65238 16.7602 6.74641 16.5017 6.84044 16.2196C6.98148 15.9375 7.09901 15.6789 7.19304 15.4439L7.54564 14.5976C7.63966 14.2215 7.68668 14.0335 7.68668 14.0335C7.73369 13.9865 7.7807 13.9159 7.82772 13.8219C8.01577 13.2578 8.15681 12.8816 8.25084 12.6936C8.39188 12.5055 8.4624 12.294 8.4624 12.0589C9.63773 10.3194 11.0951 8.8385 12.8346 7.61616C13.4928 7.09901 14.1745 6.58186 14.8797 6.06472C15.6319 5.54757 16.3841 5.05393 17.1364 4.5838C17.5125 4.20769 17.9591 3.85509 18.4762 3.526C18.9934 3.14989 19.5105 2.79729 20.0277 2.4682C20.4038 2.28015 20.7564 2.06859 21.0855 1.83352C21.4616 1.55144 21.8612 1.36339 22.2843 1.26936C22.6134 1.17533 22.919 1.19884 23.2011 1.33988C23.6712 1.62196 23.9768 1.763 24.1178 1.763C24.2589 1.71599 24.3764 1.71599 24.4704 1.763C24.7525 1.85703 24.9876 2.06859 25.1756 2.39768C25.3637 2.72677 25.5047 3.00885 25.5988 3.24392C25.7398 3.526 25.8808 3.85509 26.0219 4.2312C26.2099 4.6073 26.351 5.05393 26.445 5.57108C26.492 5.80614 26.5155 6.04121 26.5155 6.27628C26.5625 6.51134 26.6095 6.74641 26.6565 6.98148C26.6565 7.21654 26.6801 7.47512 26.7271 7.7572C26.7741 7.99226 26.7976 8.20382 26.7976 8.39188C26.7506 8.815 26.6095 9.23812 26.3745 9.66124C26.1394 10.0844 25.9278 10.4605 25.7398 10.7896C25.4107 11.4477 25.1051 12.1294 24.823 12.8346C24.588 13.4928 24.2824 14.151 23.9063 14.8092C23.6242 15.1853 23.4832 15.4204 23.4832 15.5144C23.4832 15.5614 23.4596 15.6084 23.4126 15.6554C23.2246 16.1256 23.0835 16.4782 22.9895 16.7132C22.8955 16.9013 22.8015 17.1128 22.7074 17.3479C22.4724 17.9121 22.2138 18.4997 21.9317 19.1109C21.6966 19.6751 21.4616 20.2862 21.2265 20.9444C21.4616 20.8974 21.6731 20.6859 21.8612 20.3098C22.0022 20.2157 22.1198 20.0982 22.2138 19.9572C22.3548 19.7691 22.4724 19.581 22.5664 19.393C22.8485 19.1109 23.0365 18.8994 23.1306 18.7583C23.3186 18.5232 23.4596 18.3117 23.5537 18.1236C23.6947 17.8886 23.8593 17.677 24.0473 17.489C24.5645 16.9718 25.0581 16.4076 25.5282 15.7965C26.0454 15.1853 26.539 14.5741 27.0091 13.963C27.6203 13.3988 28.161 12.7406 28.6311 11.9884C29.1012 11.1892 29.5244 10.3899 29.9005 9.59072C30.1825 9.35565 30.4411 9.12058 30.6762 8.88552C30.9583 8.65045 31.2168 8.36837 31.4519 8.03928C32.2041 7.4281 32.8388 6.81693 33.3559 6.20576C33.8731 5.59458 34.4137 5.05393 34.9779 4.5838C35.5891 4.06665 36.2473 3.66704 36.9525 3.38496C37.6577 3.10288 38.4569 3.00885 39.3501 3.10288C39.5852 3.38496 39.7968 3.69055 39.9848 4.01964C40.1729 4.34873 40.4079 4.63081 40.69 4.86588C41.0661 5.80614 41.3717 6.81693 41.6068 7.89824C41.8889 8.93253 42.0064 10.1314 41.9594 11.4948C41.8654 11.8709 41.7008 12.2705 41.4657 12.6936C41.2777 13.0697 41.1367 13.4928 41.0426 13.963C40.9486 14.198 40.8546 14.4096 40.7605 14.5976C40.7135 14.7857 40.643 14.9972 40.549 15.2323C40.3609 15.7965 40.0553 16.4547 39.6322 17.2069C39.2561 17.9121 38.9975 18.5938 38.8565 19.252C38.7155 19.393 38.6214 19.581 38.5744 19.8161C38.5744 20.0042 38.5509 20.2157 38.5039 20.4508C38.2218 21.062 38.0808 21.5556 38.0808 21.9317C38.0808 22.2608 38.0338 22.5899 37.9397 22.919C37.7047 23.7652 37.4931 24.6115 37.3051 25.4577C37.117 26.304 36.929 27.1737 36.7409 28.0669C36.6469 28.349 36.5764 28.6076 36.5293 28.8427C36.4823 29.0777 36.4353 29.3128 36.3883 29.5479C36.2943 29.8299 36.2003 30.1355 36.1062 30.4646C36.0592 30.7467 35.9887 31.0288 35.8947 31.3109C36.0357 31.2639 36.1767 31.1463 36.3178 30.9583C36.4588 30.7232 36.5999 30.5116 36.7409 30.3236C36.976 29.9475 37.211 29.5714 37.4461 29.1953C37.7282 28.8192 37.9868 28.4431 38.2218 28.0669C38.5979 27.5498 38.9505 27.0562 39.2796 26.586C39.6087 26.0689 39.9613 25.5752 40.3374 25.1051C40.8076 24.3999 41.1602 23.8358 41.3952 23.4126C41.6773 22.9895 41.9359 22.5429 42.1709 22.0728C42.5471 21.6966 42.8526 21.3205 43.0877 20.9444C43.3228 20.5683 43.6049 20.1922 43.9339 19.8161C44.263 19.1579 44.5686 18.5938 44.8507 18.1236C45.1328 17.6535 45.3208 17.2774 45.4149 16.9953C45.838 16.4312 46.2611 15.8905 46.6842 15.3734C47.1073 14.8562 47.554 14.3391 48.0241 13.8219C48.4472 13.3988 48.7763 13.0932 49.0114 12.9052C49.2935 12.6701 49.5755 12.435 49.8576 12.2C50.4218 11.4948 51.127 10.766 51.9732 10.0138C52.6314 9.07357 53.4071 8.25084 54.3004 7.54564C55.2406 6.79342 56.1104 6.04121 56.9096 5.289C57.4268 5.10094 57.8264 4.86588 58.1085 4.5838C58.3905 4.25471 58.6726 4.20769 58.9547 4.44276C59.4248 4.06665 59.848 3.94912 60.2241 4.09016C60.6002 4.18419 60.8587 4.27821 60.9998 4.37224C61.6109 4.9364 61.9635 5.3125 62.0576 5.50056C62.1516 5.6416 62.2221 5.80614 62.2691 5.9942C62.3161 6.18225 62.3867 6.3468 62.4807 6.48784L62.9038 7.54564C62.9978 7.73369 63.0919 7.94525 63.1859 8.18032C63.2799 8.41538 63.3739 8.65045 63.468 8.88552C63.656 9.26162 63.8206 9.70825 63.9616 10.2254C64.1497 10.7425 64.2202 11.2597 64.1732 11.7768C64.1262 12.0119 64.0791 12.2705 64.0321 12.5526C63.9851 12.8346 63.9146 13.1402 63.8206 13.4693C63.6795 13.8454 63.5385 14.198 63.3975 14.5271C63.3034 14.8092 63.2094 15.0913 63.1154 15.3734C63.0213 15.6084 62.9508 15.82 62.9038 16.008C62.9038 16.1961 62.8568 16.3841 62.7628 16.5722C62.4807 17.3244 62.1046 18.1942 61.6345 19.1814C61.1643 20.1217 60.8117 20.8974 60.5767 21.5086C60.5296 21.9317 60.3651 22.3078 60.083 22.6369C59.989 23.06 59.8715 23.4361 59.7304 23.7652C59.5894 24.0943 59.4483 24.4469 59.3073 24.823C59.2133 25.0581 59.1428 25.2932 59.0957 25.5282C59.0957 25.7163 59.0487 25.9278 58.9547 26.1629C58.8607 26.398 58.7431 26.6565 58.6021 26.9386C58.4611 27.1737 58.3435 27.4088 58.2495 27.6438C58.1555 28.0199 58.0614 28.396 57.9674 28.7721C57.8734 29.1012 57.7324 29.4303 57.5443 29.7594C57.3562 30.2766 57.1682 30.7702 56.9801 31.2403C56.7921 31.7105 56.557 32.1336 56.2749 32.5097C55.3347 34.0611 54.559 35.7536 53.9478 37.5871C53.3366 39.3737 52.6314 41.0896 51.8322 42.7351C51.7852 43.0172 51.6911 43.2993 51.5501 43.5813C51.4091 43.8634 51.2915 44.1455 51.1975 44.4276C50.9624 44.7097 50.7744 45.0858 50.6333 45.5559C50.5393 46.026 50.4218 46.4727 50.2807 46.8958C50.1397 47.3659 50.1632 47.7655 50.3513 48.0946C50.5393 48.3767 50.7039 48.5648 50.8449 48.6588C51.08 48.7998 51.4091 48.8468 51.8322 48.7998C52.3023 48.7528 52.6549 48.6823 52.89 48.5883C53.1721 48.4942 53.5012 48.4002 53.8773 48.3062C54.2534 48.2122 54.5825 48.1181 54.8645 48.0241C55.2406 47.8831 55.5462 47.742 55.7813 47.601C56.0634 47.4599 56.3455 47.3189 56.6275 47.1779C56.8626 46.9898 57.1682 46.8488 57.5443 46.7547C57.6853 46.6137 57.8264 46.5197 57.9674 46.4727C58.1085 46.4256 58.226 46.3551 58.32 46.2611C58.8842 45.791 59.4013 45.2738 59.8715 44.7097C60.3886 44.1455 60.9528 43.6284 61.5639 43.1582C62.3632 41.8889 63.4445 40.7841 64.8079 39.8438C65.325 40.1259 65.6541 40.3844 65.7951 40.6195C65.9832 40.8546 66.1477 41.0896 66.2888 41.3247C66.3358 41.7948 66.2653 42.1709 66.0772 42.453C65.8892 42.6881 65.7246 42.9702 65.5836 43.2993C64.8314 44.0515 64.1027 44.8507 63.3975 45.6969C62.6923 46.4962 61.9635 47.2484 61.2113 47.9536C60.9763 48.4707 60.7412 49.0114 60.5061 49.5755C60.2711 50.0927 59.9185 50.4923 59.4483 50.7744C58.6491 51.3385 57.9674 51.8557 57.4033 52.3258C56.8391 52.796 56.2279 53.1486 55.5697 53.3836C54.3944 54.0888 53.1721 54.9351 51.9027 55.9223C51.4326 56.2514 50.8449 56.557 50.1397 56.8391C49.8106 56.651 49.6226 56.5335 49.5755 56.4865C49.5285 56.4865 49.4815 56.463 49.4345 56.416C48.6823 56.322 48.1181 56.0164 47.742 55.4992C47.4129 55.0291 47.0133 54.5825 46.5432 54.1593C45.932 53.5482 45.4619 52.6784 45.1328 51.5501C44.9447 50.9389 44.7567 50.3513 44.5686 49.7871C44.4276 49.2229 44.4041 48.5412 44.4981 47.742C44.5451 47.2249 44.6626 46.7312 44.8507 46.2611C45.0388 45.791 45.2268 45.3443 45.4149 44.9212C46.2141 43.1347 47.0838 41.2777 48.0241 39.3501C48.9644 37.4226 49.7401 35.5656 50.3513 33.7791C50.4923 33.544 50.5628 33.3559 50.5628 33.2149C50.6098 33.0269 50.6568 32.8623 50.7039 32.7213C50.8919 32.2511 51.1035 31.781 51.3385 31.3109C51.6206 30.7937 51.8792 30.3236 52.1143 29.9005C52.2553 29.2423 52.4434 28.6546 52.6784 28.1375C52.9605 27.5733 53.2191 26.9856 53.4541 26.3745C53.7362 25.9514 53.9478 25.4577 54.0888 24.8936C54.2299 24.3294 54.4649 23.8358 54.794 23.4126C55.0291 22.6134 55.3112 21.7202 55.6403 20.7329C55.9694 19.7456 56.1809 18.8053 56.2749 17.9121C56.322 17.536 56.322 17.1834 56.2749 16.8543C56.2279 16.5252 56.2279 16.1491 56.2749 15.726C56.322 15.1618 56.3925 14.5506 56.4865 13.8924C56.5805 13.2342 56.5805 12.5526 56.4865 11.8474C56.2514 12.0354 56.0164 12.2 55.7813 12.341C55.5462 12.482 55.3112 12.6466 55.0761 12.8346C54.794 13.0697 54.4884 13.3048 54.1593 13.5398C53.8773 13.7279 53.6187 13.9394 53.3836 14.1745C53.1015 14.4566 52.937 14.6211 52.89 14.6682C52.843 14.6682 52.7724 14.7152 52.6784 14.8092C52.4434 15.2323 52.2318 15.5144 52.0437 15.6554C51.8557 15.7495 51.6911 15.8905 51.5501 16.0786C51.174 16.6897 50.8449 17.1364 50.5628 17.4184C50.3278 17.6535 50.0927 17.9121 49.8576 18.1942C49.8576 18.2882 49.7871 18.4997 49.6461 18.8288C49.552 19.1579 49.505 19.3695 49.505 19.4635C48.7528 20.7329 48.0476 21.6966 47.3894 22.3548C46.8723 23.1541 46.3316 23.9063 45.7675 24.6115C45.2503 25.3167 44.7567 26.0689 44.2865 26.8681C43.8164 27.6203 43.3463 28.208 42.8761 28.6311C42.453 29.0542 42.0534 29.5479 41.6773 30.112C41.2072 30.5822 40.7841 31.0993 40.4079 31.6635C40.0318 32.2276 39.5852 32.7448 39.0681 33.2149C38.692 33.7321 38.3159 34.2492 37.9397 34.7663C37.6107 35.2365 37.2816 35.7536 36.9525 36.3178C36.8584 36.5529 36.6469 36.9525 36.3178 37.5166C35.9887 38.0808 35.7771 38.4804 35.6831 38.7155C35.448 39.1386 35.26 39.5852 35.1189 40.0553C34.9779 40.5255 34.7899 40.9486 34.5548 41.3247C34.1787 41.9829 33.7791 42.6176 33.3559 43.2287C32.9328 43.8399 32.5332 44.4746 32.1571 45.1328C31.9691 45.5559 31.828 45.9555 31.734 46.3316C31.687 46.7077 31.5459 46.9663 31.3109 47.1073C31.0758 47.6715 30.7937 48.1886 30.4646 48.6588C30.1825 49.0819 29.924 49.599 29.6889 50.2102C29.5479 50.5393 29.3128 50.7744 28.9837 50.9154C28.7016 51.0565 28.4195 51.0565 28.1375 50.9154C27.7614 50.7744 27.4558 50.4923 27.2207 50.0692C26.9856 49.6461 26.7506 49.2935 26.5155 49.0114C26.4215 48.6353 26.2804 48.3062 26.0924 48.0241C25.9514 47.742 25.8808 47.4129 25.8808 47.0368C25.8338 46.8488 25.8338 46.6372 25.8808 46.4021C25.9749 46.1671 25.9984 45.9555 25.9514 45.7675C25.8103 45.2033 25.8103 44.7567 25.9514 44.4276C26.0924 44.0515 26.2099 43.7224 26.304 43.4403C26.492 42.9232 26.6565 42.6176 26.7976 42.5235C26.8916 42.1945 26.9621 41.8889 27.0091 41.6068C27.1032 41.3247 27.1972 41.0191 27.2912 40.69C27.3853 40.455 27.4793 40.2434 27.5733 40.0553C27.6673 39.8203 27.7614 39.5852 27.8554 39.3501C27.9494 39.1151 28.0199 38.9035 28.0669 38.7155C28.161 38.5274 28.255 38.3159 28.349 38.0808C28.396 37.8927 28.4195 37.7517 28.4195 37.6577C28.4195 37.5636 28.4666 37.4226 28.5606 37.2345C28.6546 36.8114 28.7721 36.4118 28.9132 36.0357C29.1012 35.6126 29.2893 35.166 29.4773 34.6958C29.6184 34.3197 29.7594 33.9436 29.9005 33.5675C30.0885 33.1914 30.2531 32.7918 30.3941 32.3687C30.5822 31.9455 30.7467 31.5459 30.8877 31.1698C31.0758 30.7467 31.2403 30.4176 31.3814 30.1825C31.4754 29.9475 31.5929 29.6654 31.734 29.3363C31.875 29.0072 32.0161 28.7016 32.1571 28.4195C32.4392 27.9024 32.5802 27.5968 32.5802 27.5028C32.6272 27.3617 32.6507 27.2442 32.6507 27.1502C32.4627 26.8211 32.4627 26.398 32.6507 25.8808C32.8858 25.3167 33.1209 24.7525 33.3559 24.1884C33.591 23.6242 33.7556 23.0365 33.8496 22.4254C33.9436 21.8142 34.0847 21.2265 34.2727 20.6624C34.5078 19.8631 34.7899 18.9464 35.1189 17.9121C35.4951 16.8778 35.7301 15.867 35.8241 14.8797C35.8241 14.5036 35.8477 14.151 35.8947 13.8219C35.9417 13.4928 35.8006 13.3048 35.4715 13.2578C35.3775 13.0227 35.2835 12.7876 35.1895 12.5526C35.0954 12.3175 34.9544 12.1294 34.7663 11.9884C34.2962 11.9884 33.9201 12.1529 33.638 12.482C33.403 12.7641 33.1444 13.0462 32.8623 13.3283C32.3452 14.0335 31.781 14.6682 31.1698 15.2323C30.6057 15.7965 30.065 16.4547 29.5479 17.2069C29.0307 17.724 28.4666 18.3587 27.8554 19.1109C27.2442 19.8631 26.7506 20.4978 26.3745 21.015C26.2804 21.344 26.0924 21.6026 25.8103 21.7907C25.5282 21.9787 25.2932 22.1903 25.1051 22.4254C24.87 22.7074 24.588 23.0365 24.2589 23.4126C23.9298 23.7887 23.6477 24.1648 23.4126 24.541C23.2246 24.776 23.013 25.0111 22.778 25.2462C22.5899 25.4812 22.3783 25.7163 22.1433 25.9514C22.0022 26.1394 21.8612 26.351 21.7202 26.586C21.5791 26.7741 21.4146 26.9856 21.2265 27.2207C20.8034 27.6438 20.5213 27.9729 20.3803 28.208C20.2392 28.4431 20.0512 28.6546 19.8161 28.8427C19.487 29.4538 19.1344 30.065 18.7583 30.6762C18.4292 31.2874 18.0766 31.922 17.7005 32.5802C17.5125 32.6743 17.3714 32.8388 17.2774 33.0739C17.1834 33.3089 17.0658 33.5205 16.9248 33.7085C16.8308 34.2257 16.6662 34.6488 16.4312 34.9779C16.2431 35.307 16.0786 35.6596 15.9375 36.0357C15.2323 37.117 14.6446 38.1043 14.1745 38.9975C13.7044 39.8438 13.2342 40.737 12.7641 41.6773C12.529 42.1474 12.388 42.4295 12.341 42.5235C12.294 42.6176 12.2235 42.7116 12.1294 42.8056C11.9884 43.1347 11.8238 43.4403 11.6358 43.7224C11.4948 44.0045 11.3537 44.2865 11.2127 44.5686C11.1186 44.7097 11.0481 44.8507 11.0011 44.9917C11.0011 45.1328 10.9306 45.2503 10.7896 45.3443C10.2724 46.8488 9.63773 48.2592 8.88552 49.5755C8.18032 50.8449 7.54564 52.2318 6.98148 53.7362C6.88745 53.8302 6.81693 53.9478 6.76992 54.0888C6.7229 54.2769 6.65238 54.4414 6.55836 54.5825C6.04121 55.0996 5.68861 55.3112 5.50056 55.2171C5.35952 55.1231 5.17146 55.0761 4.9364 55.0761C4.74834 55.0761 4.5838 55.1466 4.44276 55.2877C4.34873 55.4287 4.13717 55.4992 3.80808 55.4992C3.38496 55.4992 3.12639 55.5462 3.03236 55.6403C2.93833 55.7343 2.75028 55.8518 2.4682 55.9929C2.09209 56.2279 1.83352 56.369 1.69248 56.416C1.59845 56.463 1.50443 56.4395 1.4104 56.3455C1.36339 56.4865 1.26936 56.557 1.12832 56.557C0.98728 56.557 0.869746 56.651 0.77572 56.8391C0.681693 56.6981 0.56416 56.651 0.42312 56.6981C0.28208 56.7451 0.14104 56.6981 0 56.557ZM98.6574 7.26356C98.8925 8.4859 99.1746 9.59072 99.5037 10.578C99.8328 11.5653 100.044 12.6466 100.138 13.8219C100.138 14.104 100.115 14.3861 100.068 14.6682C100.068 14.9502 100.091 15.2323 100.138 15.5144V16.3606C100.138 16.7367 100.091 17.0893 99.9973 17.4184C99.9503 17.7475 99.9268 18.1001 99.9268 18.4762C99.8798 19.3225 99.7387 20.1452 99.5037 20.9444C99.4567 21.4616 99.4097 21.7202 99.3626 21.7202C99.3156 21.6731 99.2921 21.6966 99.2921 21.7907C99.1981 22.3078 99.1276 22.8015 99.0806 23.2716C99.0335 23.7417 98.963 24.2354 98.869 24.7525C99.7152 24.8465 100.679 24.9641 101.76 25.1051C102.889 25.1991 103.946 25.1991 104.934 25.1051C105.169 25.0581 105.38 24.9876 105.568 24.8936C105.803 24.7995 106.039 24.7055 106.274 24.6115C107.073 24.5174 107.708 24.3294 108.178 24.0473C108.648 23.7652 109.212 23.5302 109.87 23.3421C109.682 23.8593 109.447 24.1648 109.165 24.2589C109.024 24.729 108.883 25.0581 108.742 25.2462C108.648 25.3872 108.53 25.5047 108.389 25.5988C108.154 25.7868 107.943 25.9514 107.755 26.0924C107.566 26.1864 107.355 26.3275 107.12 26.5155C106.368 26.9386 105.756 27.1737 105.286 27.2207C104.863 27.2207 104.464 27.2912 104.087 27.4323C103.758 27.3853 103.359 27.3382 102.889 27.2912C102.466 27.2442 102.089 27.2442 101.76 27.2912C101.525 27.1502 101.267 27.0797 100.985 27.0797C100.703 27.0797 100.42 27.1267 100.138 27.2207C99.5742 27.4088 99.1981 27.5498 99.01 27.6438C98.822 27.6908 98.6339 27.7614 98.4459 27.8554C98.3519 28.1375 98.2813 28.349 98.2343 28.4901C98.2343 28.6311 98.2108 28.7486 98.1638 28.8427C98.1168 29.3598 98.0698 29.877 98.0228 30.3941C98.0228 30.8642 97.9522 31.3579 97.8112 31.875C97.6231 32.2981 97.5291 32.5802 97.5291 32.7213C97.5291 32.8153 97.4821 32.9563 97.3881 33.1444C97.247 33.3795 97.1295 33.6615 97.0355 33.9906C96.9415 34.3197 96.8474 34.6488 96.7534 34.9779C96.5183 35.213 96.3773 35.4951 96.3303 35.8241C96.2833 36.1532 96.2363 36.5058 96.1892 36.8819C96.1422 37.2581 96.0247 37.6342 95.8366 38.0103C95.6486 38.3394 95.4605 38.6685 95.2725 38.9975C95.1785 39.2326 95.0844 39.4677 94.9904 39.7027C94.8964 39.8908 94.7788 40.1024 94.6378 40.3374C94.0736 41.0426 93.533 41.7948 93.0158 42.5941C92.7808 43.1112 92.5222 43.5813 92.2401 44.0045C92.0051 44.3806 91.77 44.8037 91.5349 45.2738C91.1588 45.932 90.6887 46.5197 90.1245 47.0368C89.5604 47.507 88.9962 48.0006 88.432 48.5177C88.15 48.7528 87.8679 49.0114 87.5858 49.2935C87.3037 49.5755 87.0452 49.8341 86.8101 50.0692C86.575 50.3042 86.3164 50.5628 86.0344 50.8449C85.7993 51.08 85.5642 51.315 85.3292 51.5501C85.0001 51.7852 84.6475 52.0437 84.2714 52.3258C83.9423 52.5609 83.5897 52.796 83.2136 53.031C82.4614 53.4541 81.7091 53.8538 80.9569 54.2299C80.2517 54.606 79.4995 55.0291 78.7003 55.4992C78.3242 55.7343 77.9716 55.9458 77.6425 56.1339C77.3134 56.369 76.9608 56.557 76.5847 56.6981C76.3026 56.7921 75.997 56.8391 75.6679 56.8391C75.3859 56.8861 75.1038 56.9331 74.8217 56.9801C74.4456 57.0742 74.093 57.1447 73.7639 57.1917C73.4348 57.2857 73.0587 57.3327 72.6356 57.3327C72.1184 57.2857 71.5308 57.1682 70.8726 56.9801C70.2614 56.8391 69.7913 56.651 69.4622 56.416C68.851 55.8518 68.4749 55.4522 68.3339 55.2171C68.2398 54.9821 68.0753 54.747 67.8402 54.5119C67.7932 54.3239 67.7227 54.1828 67.6287 54.0888C67.5816 54.0418 67.5581 53.9243 67.5581 53.7362C67.229 53.2661 66.9705 52.796 66.7824 52.3258C66.3593 51.4326 66.0537 50.6568 65.8657 49.9987C65.7246 49.2935 65.7011 48.5648 65.7951 47.8125C65.7011 47.0603 65.6541 46.2141 65.6541 45.2738C65.6541 44.2865 65.6541 43.3463 65.6541 42.453C65.6541 42.1239 65.6306 41.8183 65.5836 41.5363C65.5836 41.2072 65.6306 40.9251 65.7246 40.69C65.6776 40.3139 65.6306 39.9613 65.5836 39.6322C65.5836 39.2561 65.6306 38.927 65.7246 38.6449C65.7716 38.1748 65.7951 37.8222 65.7951 37.5871C65.8421 37.3521 65.9127 37.117 66.0067 36.8819C66.2418 36.6469 66.3358 36.4118 66.2888 36.1767C66.2888 35.9417 66.3358 35.7066 66.4298 35.4715C66.6179 34.2022 66.9235 33.0739 67.3466 32.0866C67.4876 31.7105 67.6287 31.3579 67.7697 31.0288C67.9107 30.6527 68.0283 30.2766 68.1223 29.9005C68.4044 29.1012 68.71 28.3725 69.0391 27.7143C69.4152 27.0562 69.7678 26.351 70.0969 25.5988C70.755 24.2354 71.4367 22.9895 72.1419 21.8612C72.8941 20.6859 73.6464 19.487 74.3986 18.2647C74.6336 18.1236 74.7982 17.9356 74.8922 17.7005C74.9862 17.4184 75.1273 17.2069 75.3153 17.0658C75.6914 16.2666 76.1381 15.5849 76.6552 15.0208C77.1724 14.4566 77.6895 13.8924 78.2067 13.3283C78.4417 13.1402 78.6533 12.9522 78.8413 12.7641C79.0294 12.529 79.2409 12.294 79.476 12.0589C79.617 11.9179 79.7581 11.8003 79.8991 11.7063C80.0872 11.5653 80.2282 11.4007 80.3222 11.2127C80.5103 11.1186 80.6748 11.0011 80.8159 10.8601C81.0039 10.719 81.1685 10.578 81.3095 10.437C81.4976 10.2959 81.6856 10.1549 81.8737 10.0138C82.0617 9.8728 82.2498 9.73176 82.4378 9.59072C82.814 9.30864 83.143 9.02656 83.4251 8.74448C83.7542 8.41538 84.1068 8.1333 84.4829 7.89824C84.859 7.85122 85.0941 7.82772 85.1881 7.82772C85.2822 7.82772 85.3292 7.7572 85.3292 7.61616C85.8933 7.14602 86.2459 6.81693 86.387 6.62888C86.575 6.39381 86.7396 6.15874 86.8806 5.92368C87.2567 5.68861 87.5858 5.43004 87.8679 5.14796C88.15 4.81886 88.4791 4.53678 88.8552 4.30172C89.1372 3.97263 89.3253 3.76107 89.4193 3.66704C89.5604 3.57301 89.7014 3.47899 89.8424 3.38496C89.9365 3.24392 90.0305 3.14989 90.1245 3.10288C90.2656 3.00885 90.3596 2.91483 90.4066 2.8208C90.6417 2.72677 90.8532 2.63275 91.0413 2.53872C91.2293 2.39768 91.4644 2.28015 91.7465 2.18612C92.0756 2.23313 92.3342 2.23313 92.5222 2.18612C92.7573 2.13911 92.9688 2.13911 93.1569 2.18612C93.439 2.23313 93.6505 2.35067 93.7916 2.53872C93.9796 2.67976 94.1912 2.84431 94.4262 3.03236C94.9904 3.12639 95.4135 3.43197 95.6956 3.94912C96.0247 4.41925 96.3773 4.77185 96.7534 5.00692C96.9885 5.38302 97.247 5.75913 97.5291 6.13524C97.8582 6.46433 98.1403 6.84044 98.3754 7.26356H98.6574ZM93.1569 20.7329C93.392 21.062 93.674 21.3676 94.0031 21.6496C94.3322 21.8847 94.6613 22.1198 94.9904 22.3548C94.9904 21.1325 95.0374 19.8161 95.1314 18.4057C95.2725 16.9483 95.296 15.6084 95.202 14.3861C95.0609 13.8689 94.8964 13.3753 94.7083 12.9052C94.5673 12.435 94.4498 11.9179 94.3557 11.3537C94.1677 11.1657 94.0266 10.9776 93.9326 10.7896C93.8856 10.6015 93.8151 10.4134 93.721 10.2254C93.486 9.94332 93.3684 9.77877 93.3684 9.73176C93.3684 9.63773 93.3214 9.5437 93.2274 9.44968C93.1334 9.35565 93.0158 9.26162 92.8748 9.1676C92.7808 9.07357 92.6868 8.95604 92.5927 8.815C92.0286 8.76798 91.5584 8.88552 91.1823 9.1676C90.8532 9.40266 90.5241 9.63773 90.195 9.8728C90.101 10.531 90.0775 11.1422 90.1245 11.7063C90.1715 12.2705 90.2421 12.8111 90.3361 13.3283C90.4771 14.2215 90.6182 15.1148 90.7592 16.008C90.9002 16.9013 91.1353 17.677 91.4644 18.3352C91.5114 18.6643 91.6995 19.0639 92.0286 19.534C92.3577 19.9572 92.7338 20.3568 93.1569 20.7329ZM83.7072 14.5976C83.4721 14.8327 83.2371 15.0443 83.002 15.2323C82.7669 15.4204 82.5554 15.6554 82.3673 15.9375C82.0852 16.1726 81.8502 16.4076 81.6621 16.6427C81.4741 16.8778 81.2625 17.1128 81.0274 17.3479C80.7924 17.583 80.5808 17.818 80.3928 18.0531C80.2047 18.2412 80.0167 18.4762 79.8286 18.7583C79.6876 18.8523 79.57 18.9699 79.476 19.1109C79.382 19.252 79.2644 19.393 79.1234 19.534C78.6533 20.1452 78.3242 20.5683 78.1361 20.8034C77.9481 21.0385 77.807 21.2735 77.713 21.5086C77.4309 21.6966 77.1959 21.9552 77.0078 22.2843C76.8668 22.5664 76.7257 22.872 76.5847 23.2011C76.3026 23.5772 76.044 23.9768 75.809 24.3999C75.5739 24.823 75.3623 25.2462 75.1743 25.6693C74.7982 26.3275 74.5631 26.7741 74.4691 27.0091C74.4221 27.2442 74.3516 27.4793 74.2575 27.7143C74.0695 27.9964 73.9049 28.3725 73.7639 28.8427C72.9647 30.5351 72.2595 32.4627 71.6483 34.6253C71.5543 35.0484 71.4132 35.448 71.2252 35.8241C71.0841 36.2003 70.9901 36.5764 70.9431 36.9525C70.8961 37.1405 70.8726 37.3286 70.8726 37.5166C70.9196 37.7047 70.9431 37.8927 70.9431 38.0808C70.8961 38.5509 70.8491 39.0211 70.8021 39.4912C70.755 39.9143 70.7315 40.3844 70.7315 40.9016C70.7315 41.8419 70.7315 42.7116 70.7315 43.5108C70.7315 44.31 70.7785 45.1328 70.8726 45.979C70.8726 46.5902 70.9196 47.0838 71.0136 47.4599C71.1076 47.648 71.2722 47.836 71.5073 48.0241C71.7423 48.2122 71.9539 48.3767 72.1419 48.5177C72.518 48.8938 72.8941 49.2935 73.2703 49.7166C73.6464 50.0927 74.1635 50.1632 74.8217 49.9281C75.0568 50.0692 75.3153 50.0692 75.5974 49.9281C75.8795 49.7871 76.1616 49.7636 76.4437 49.8576C76.6787 49.7636 76.9138 49.7166 77.1489 49.7166C77.3839 49.6696 77.619 49.599 77.8541 49.505C78.2302 49.411 78.5828 49.317 78.9119 49.2229C79.288 49.0819 79.6406 48.9644 79.9696 48.8703C80.3458 48.7293 80.7219 48.6118 81.098 48.5177C81.4741 48.3767 81.8267 48.2122 82.1558 48.0241C83.096 47.2249 83.7777 46.5902 84.2008 46.1201C84.5299 45.791 84.859 45.5089 85.1881 45.2738C85.5172 44.9917 85.8228 44.7097 86.1049 44.4276C86.34 44.1925 86.575 43.9574 86.8101 43.7224C87.0452 43.4403 87.2567 43.1112 87.4448 42.7351C87.5858 42.5941 87.7033 42.453 87.7974 42.312C87.9384 42.1239 88.0559 41.9359 88.15 41.7478C88.385 41.4657 88.5496 41.1602 88.6436 40.8311C88.7846 40.502 88.9727 40.1729 89.2078 39.8438C89.4898 39.0446 89.8189 38.2923 90.195 37.5871C90.5712 36.8819 90.8767 36.1532 91.1118 35.401C91.5349 34.5078 91.8875 33.7321 92.1696 33.0739C92.4987 32.3687 92.7338 31.6635 92.8748 30.9583C93.0158 30.8172 93.0864 30.6527 93.0864 30.4646C93.1334 30.2296 93.2039 30.0415 93.2979 29.9005C93.533 29.2423 93.721 28.6076 93.8621 27.9964C94.0501 27.3853 94.2382 26.7036 94.4262 25.9514C94.2382 25.8573 94.0736 25.8338 93.9326 25.8808C93.7916 25.8808 93.6505 25.8338 93.5095 25.7398C93.1334 25.5988 92.7808 25.3637 92.4517 25.0346C92.1696 24.6585 91.8405 24.4469 91.4644 24.3999C91.2764 24.2589 91.1118 24.1413 90.9708 24.0473C90.8767 23.9533 90.7357 23.8593 90.5476 23.7652C89.7954 22.966 89.0667 22.1433 88.3615 21.297C87.7033 20.4038 87.1627 19.4165 86.7396 18.3352C86.3164 17.3949 85.9874 16.5252 85.7523 15.726C85.5172 14.8797 85.3057 13.9865 85.1176 13.0462C84.8355 13.3283 84.577 13.5868 84.3419 13.8219C84.1538 14.057 83.9423 14.3156 83.7072 14.5976ZM123.269 15.1618C124.115 14.5506 124.656 13.963 124.891 13.3988C125.126 12.8346 125.455 12.294 125.878 11.7768C126.16 11.5418 126.419 11.3067 126.654 11.0716C126.889 10.7896 127.124 10.484 127.359 10.1549C127.97 9.35565 128.581 8.57993 129.193 7.82772C129.851 7.02849 130.509 6.22926 131.167 5.43004C131.355 5.19497 131.543 4.9364 131.731 4.65432C131.919 4.37224 132.131 4.13717 132.366 3.94912C132.601 3.76107 132.836 3.64353 133.071 3.59652C133.353 3.54951 133.612 3.40847 133.847 3.1734C134.74 2.84431 135.563 2.49171 136.315 2.1156C137.067 1.73949 137.914 1.48092 138.854 1.33988C139.136 1.52793 139.347 1.73949 139.489 1.97456C139.677 2.16261 139.888 2.35067 140.123 2.53872C140.546 2.67976 140.852 2.93833 141.04 3.31444C141.275 3.69055 141.487 4.11367 141.675 4.5838C141.863 4.9599 142.004 5.21848 142.098 5.35952C142.239 5.45354 142.356 5.59458 142.45 5.78264C142.638 6.29978 142.756 6.86394 142.803 7.47512C142.897 8.03928 143.062 8.55642 143.297 9.02656C143.438 9.12058 143.532 9.23812 143.579 9.37916C143.673 9.47318 143.79 9.56721 143.931 9.66124C144.119 9.94332 144.143 10.2724 144.002 10.6485C143.908 10.9776 143.908 11.3302 144.002 11.7063C144.096 11.8944 144.166 12.1059 144.213 12.341C144.26 12.529 144.307 12.6936 144.354 12.8346C144.401 13.5398 144.378 14.2685 144.284 15.0208C144.237 15.773 144.19 16.5252 144.143 17.2774C144.096 17.6535 144.072 18.0061 144.072 18.3352C144.119 18.6643 144.119 19.0169 144.072 19.393C143.978 19.8631 143.861 20.3098 143.72 20.7329C143.626 21.156 143.532 21.5791 143.438 22.0022C143.344 22.5664 143.25 23.013 143.156 23.3421C143.062 23.5772 142.967 23.7887 142.873 23.9768C142.826 24.1178 142.779 24.3059 142.732 24.541C141.839 26.1394 140.922 27.6908 139.982 29.1953C139.042 30.6997 138.243 32.3452 137.584 34.1317C137.349 34.5548 137.208 34.8839 137.161 35.1189C137.114 35.307 136.997 35.4715 136.809 35.6126C136.715 35.9417 136.597 36.2473 136.456 36.5293C136.362 36.7644 136.221 37.0465 136.033 37.3756C135.657 38.0338 135.281 38.739 134.905 39.4912C134.576 40.2434 134.223 40.9721 133.847 41.6773C133.612 42.1474 133.377 42.6176 133.142 43.0877C132.954 43.5108 132.742 43.981 132.507 44.4981C132.319 44.9212 132.131 45.3443 131.943 45.7675C131.802 46.1436 131.637 46.5902 131.449 47.1073C131.402 47.2484 131.332 47.4364 131.238 47.6715C131.191 47.9066 131.167 48.0711 131.167 48.1651C131.167 48.3062 131.238 48.4707 131.379 48.6588C131.52 48.7998 131.637 48.9409 131.731 49.0819C131.919 49.317 132.084 49.5285 132.225 49.7166C132.413 49.9046 132.625 50.0457 132.86 50.1397C133.236 50.1867 133.588 50.1632 133.917 50.0692C134.294 49.9752 134.646 49.9752 134.975 50.0692C135.163 49.9752 135.328 49.9046 135.469 49.8576C135.657 49.7636 135.845 49.6931 136.033 49.6461C137.067 49.0819 138.031 48.4707 138.924 47.8125C139.865 47.1544 140.828 46.5197 141.816 45.9085C142.333 45.4854 142.85 45.0858 143.367 44.7097C143.931 44.2865 144.472 43.8634 144.989 43.4403C145.318 43.2993 145.694 43.0877 146.117 42.8056C146.588 42.4765 146.964 42.4765 147.246 42.8056C147.246 43.0877 147.269 43.2993 147.316 43.4403C147.363 43.5813 147.34 43.7459 147.246 43.9339C147.199 44.169 147.105 44.3336 146.964 44.4276C146.87 44.4746 146.776 44.5686 146.682 44.7097C146.541 44.9447 146.47 45.2268 146.47 45.5559C146.517 45.838 146.493 46.1436 146.399 46.4727C146.305 46.7547 146.164 46.9898 145.976 47.1779C145.788 47.3189 145.647 47.507 145.553 47.742C144.331 48.7763 143.062 49.7636 141.745 50.7039C140.429 51.6441 139.112 52.5844 137.796 53.5247C137.608 53.6187 137.42 53.7127 137.232 53.8067C137.091 53.9008 136.926 53.9948 136.738 54.0888C136.221 54.3709 135.727 54.653 135.257 54.9351C134.834 55.2642 134.364 55.5227 133.847 55.7108C133.753 55.8518 133.635 55.9223 133.494 55.9223C133.353 55.9694 133.165 56.0399 132.93 56.1339C132.742 56.1809 132.554 56.2514 132.366 56.3455C132.225 56.4395 132.107 56.463 132.013 56.416C131.825 56.416 131.661 56.369 131.52 56.2749C131.379 56.1809 131.214 56.1104 131.026 56.0634C130.509 55.8753 129.945 55.7343 129.334 55.6403C128.769 55.5932 128.299 55.4287 127.923 55.1466C127.782 54.7705 127.735 54.4414 127.782 54.1593C127.876 53.8773 127.829 53.5482 127.641 53.1721C127.453 52.796 127.265 52.4434 127.077 52.1143C126.889 51.7382 126.748 51.362 126.654 50.9859C126.372 50.2807 126.207 49.6696 126.16 49.1524C126.16 48.5883 126.184 48.0711 126.231 47.601C126.278 47.0838 126.372 46.6137 126.513 46.1906C126.701 45.7204 126.889 45.2973 127.077 44.9212C127.312 44.5451 127.5 44.169 127.641 43.7929C127.782 43.3698 127.97 42.9467 128.205 42.5235C128.44 41.9124 128.605 41.4187 128.699 41.0426C128.84 40.6665 128.981 40.2904 129.122 39.9143C129.31 39.5382 129.475 39.1856 129.616 38.8565C129.804 38.5274 129.945 38.1513 130.039 37.7282C130.603 36.7409 131.097 35.7301 131.52 34.6958C131.943 33.6145 132.366 32.5567 132.789 31.5224C132.93 31.1463 133.095 30.7937 133.283 30.4646C133.471 30.0885 133.635 29.7124 133.776 29.3363C134.011 28.8192 134.176 28.2785 134.27 27.7143C134.411 27.1502 134.599 26.6095 134.834 26.0924C134.928 25.9514 134.999 25.8103 135.046 25.6693C135.093 25.4812 135.163 25.2697 135.257 25.0346C135.633 24.2354 135.986 23.3656 136.315 22.4254C136.644 21.4381 137.044 20.5683 137.514 19.8161C137.749 19.1579 137.984 18.5232 138.219 17.9121C138.501 17.2539 138.689 16.4782 138.783 15.5849C138.83 15.2088 138.83 14.8327 138.783 14.4566C138.783 14.0805 138.736 13.7279 138.642 13.3988C138.36 12.7406 138.196 12.2705 138.149 11.9884C138.149 11.7063 138.031 11.4712 137.796 11.2832C137.702 10.9541 137.608 10.7425 137.514 10.6485C137.467 10.5075 137.42 10.3429 137.373 10.1549C137.232 10.0608 137.091 9.99033 136.95 9.94332C136.856 9.84929 136.762 9.75526 136.668 9.66124C135.868 10.2724 135.116 10.8836 134.411 11.4948C133.753 12.0589 133.024 12.6231 132.225 13.1872C131.379 13.8924 130.674 14.4801 130.109 14.9502C129.592 15.4204 129.075 15.914 128.558 16.4312C128.229 16.7602 128.017 16.9248 127.923 16.9248C127.124 17.583 126.419 18.4997 125.808 19.6751C125.149 20.8034 124.491 21.8847 123.833 22.919C123.222 23.9533 122.658 25.0346 122.141 26.1629C121.482 27.1032 120.895 28.1375 120.378 29.2658C119.907 30.3941 119.414 31.4989 118.897 32.5802C118.709 33.0974 118.521 33.591 118.333 34.0611C118.191 34.5313 117.98 34.9544 117.698 35.3305C117.51 35.6596 117.298 36.0122 117.063 36.3883C116.828 36.7174 116.593 37.0465 116.358 37.3756C116.029 37.7987 115.676 38.2218 115.3 38.6449C114.971 39.0211 114.665 39.4442 114.383 39.9143C114.195 40.1964 114.031 40.502 113.89 40.8311C113.796 41.1131 113.702 41.3717 113.608 41.6068C113.514 41.8889 113.396 42.1945 113.255 42.5235C113.161 42.8056 113.044 43.0877 112.902 43.3698C112.808 43.7459 112.691 44.0045 112.55 44.1455C112.315 44.7567 112.056 45.3443 111.774 45.9085C111.492 46.4727 111.234 47.0368 110.998 47.601C110.951 47.8831 110.857 48.2357 110.716 48.6588C110.575 49.0819 110.411 49.5285 110.223 49.9987C110.082 50.4688 109.917 50.9154 109.729 51.3385C109.588 51.7146 109.494 52.0437 109.447 52.3258C109.212 52.4669 108.977 52.6314 108.742 52.8195C108.554 52.9605 108.342 53.0545 108.107 53.1015C107.872 53.3836 107.59 53.5482 107.261 53.5952C106.979 53.5952 106.673 53.6657 106.344 53.8067C106.156 53.9008 105.968 54.0183 105.78 54.1593C105.639 54.3004 105.451 54.4414 105.216 54.5825C104.981 54.7235 104.722 54.8175 104.44 54.8645C104.158 54.9116 103.899 55.0526 103.664 55.2877C103.523 55.3817 103.406 55.4992 103.312 55.6403C103.265 55.7813 103.194 55.8988 103.1 55.9929C102.724 55.8988 102.442 55.9223 102.254 56.0634C102.066 56.2514 101.807 56.2749 101.478 56.1339C101.243 56.0399 101.102 55.8518 101.055 55.5697C100.961 55.2877 100.891 54.9821 100.844 54.653C101.032 54.1828 101.173 53.8773 101.267 53.7362C101.314 53.6422 101.384 53.5482 101.478 53.4541C101.572 53.3131 101.619 53.1721 101.619 53.031C101.666 52.89 101.737 52.7724 101.831 52.6784C101.925 52.4434 102.042 52.2083 102.183 51.9732C102.324 51.7382 102.466 51.5031 102.607 51.268C102.654 51.174 102.748 50.9859 102.889 50.7039C103.077 50.3748 103.265 50.0457 103.453 49.7166C103.641 49.3405 103.805 49.0114 103.946 48.7293C104.087 48.4002 104.205 48.1886 104.299 48.0946C104.44 47.8596 104.558 47.648 104.652 47.4599C104.793 47.2249 104.934 46.9898 105.075 46.7547C105.169 46.5197 105.286 46.3081 105.427 46.1201C105.615 45.885 105.78 45.6499 105.921 45.4149C106.109 45.0388 106.227 44.8507 106.274 44.8507C106.321 44.8507 106.368 44.8037 106.415 44.7097C106.509 44.5686 106.556 44.4276 106.556 44.2865C106.603 44.0985 106.673 43.9574 106.767 43.8634C107.002 43.3933 107.261 42.9467 107.543 42.5235C107.825 42.0534 108.084 41.6303 108.319 41.2542C108.507 41.0191 108.648 40.7841 108.742 40.549C108.883 40.3139 109.024 40.0318 109.165 39.7027C109.4 39.1856 109.659 38.692 109.941 38.2218C110.27 37.7047 110.552 37.1875 110.787 36.6704C111.022 36.1532 111.257 35.6126 111.492 35.0484C111.727 34.4843 111.986 33.9201 112.268 33.3559C112.503 32.8388 112.761 32.3452 113.044 31.875C113.326 31.3579 113.561 30.7937 113.749 30.1825C114.125 29.5244 114.454 28.9367 114.736 28.4195C115.018 27.8554 115.3 27.3147 115.582 26.7976C115.77 26.4215 115.935 26.0689 116.076 25.7398C116.217 25.3637 116.381 24.9876 116.57 24.6115C116.711 24.3764 116.828 24.1178 116.922 23.8358C117.063 23.5067 117.228 23.2246 117.416 22.9895C117.51 22.7544 117.58 22.5194 117.627 22.2843C117.721 22.0022 117.862 21.7907 118.05 21.6496C118.05 21.4146 118.097 21.25 118.191 21.156C118.286 21.015 118.38 20.8974 118.474 20.8034C118.709 19.9101 118.92 19.0169 119.108 18.1236C119.296 17.1834 119.508 16.2431 119.743 15.3028C119.696 15.0678 119.696 14.8327 119.743 14.5976C119.837 14.3156 119.907 14.01 119.954 13.6809C120.001 13.0697 120.049 12.529 120.096 12.0589C120.143 11.5888 120.19 11.0716 120.237 10.5075C120.284 10.2724 120.307 10.0373 120.307 9.80228C120.354 9.56721 120.354 9.35565 120.307 9.1676C120.26 8.79149 120.096 8.43889 119.813 8.1098C119.578 7.7807 119.367 7.47512 119.179 7.19304C118.709 7.24005 118.309 7.4046 117.98 7.68668C117.651 7.96876 117.298 8.22733 116.922 8.4624C116.405 8.8385 116.076 9.09708 115.935 9.23812C115.794 9.33214 115.653 9.44968 115.512 9.59072C115.418 9.73176 115.324 9.84929 115.23 9.94332C114.76 10.2724 114.454 10.6015 114.313 10.9306C114.172 11.2127 114.007 11.4712 113.819 11.7063C113.725 11.8003 113.631 11.9179 113.537 12.0589C113.443 12.2 113.349 12.3175 113.255 12.4115C113.02 12.6466 112.785 12.9052 112.55 13.1872C112.362 13.4693 112.15 13.7514 111.915 14.0335C111.915 14.4096 111.821 14.7857 111.633 15.1618C111.445 15.5379 111.351 15.961 111.351 16.4312C111.304 16.6662 111.281 16.9718 111.281 17.3479C111.328 17.724 111.375 18.0531 111.422 18.3352C111.422 18.5232 111.445 18.7348 111.492 18.9699C111.586 19.1579 111.68 19.3695 111.774 19.6046C111.868 19.9807 111.939 20.2862 111.986 20.5213C112.08 20.7094 112.244 20.8504 112.479 20.9444C112.714 20.8504 112.902 20.7329 113.044 20.5918C113.185 20.4508 113.326 20.3098 113.467 20.1687C113.514 20.0747 113.561 19.9572 113.608 19.8161C113.702 19.6751 113.796 19.5575 113.89 19.4635C113.984 19.3695 114.054 19.252 114.101 19.1109C114.195 18.9229 114.289 18.7818 114.383 18.6878C114.618 18.3117 114.83 17.9356 115.018 17.5595C115.253 17.1834 115.418 16.6662 115.512 16.008C115.371 15.1148 115.488 14.2685 115.864 13.4693C115.817 13.3753 115.794 13.2578 115.794 13.1167C115.841 12.9287 115.864 12.7641 115.864 12.6231C116.428 12.6701 116.805 12.9287 116.993 13.3988C117.087 13.9159 117.11 14.5506 117.063 15.3028C117.063 16.008 117.04 16.7132 116.993 17.4184C116.946 17.9356 116.899 18.3822 116.852 18.7583C116.805 19.1344 116.687 19.487 116.499 19.8161C116.264 20.2862 116.005 20.8034 115.723 21.3676C115.441 21.8847 115.112 22.3313 114.736 22.7074C114.454 22.8015 114.195 22.966 113.96 23.2011C113.725 23.3891 113.49 23.5537 113.255 23.6947C112.691 24.0708 112.338 24.3059 112.197 24.3999C112.103 24.4939 111.939 24.588 111.704 24.682C111.234 24.4939 110.904 24.3059 110.716 24.1178C110.575 23.8828 110.387 23.7182 110.152 23.6242C109.917 23.2481 109.659 22.825 109.376 22.3548C109.094 21.8377 108.859 21.3676 108.671 20.9444C108.577 20.7564 108.507 20.5448 108.46 20.3098C108.413 20.0277 108.342 19.7691 108.248 19.534C108.107 18.9229 107.943 18.2647 107.755 17.5595C107.613 16.8073 107.59 16.0315 107.684 15.2323C107.684 14.9502 107.731 14.6446 107.825 14.3156C107.919 13.9865 108.013 13.6574 108.107 13.3283C108.577 12.5761 109 11.7768 109.376 10.9306C109.753 10.0844 110.129 9.26162 110.505 8.4624C110.881 7.56914 111.304 6.76992 111.774 6.06472C112.244 5.35952 112.644 4.56029 112.973 3.66704C113.208 3.33795 113.373 3.1734 113.467 3.1734C113.561 3.12639 113.584 3.00885 113.537 2.8208C114.195 2.63275 114.712 2.30365 115.089 1.83352C115.512 1.36339 116.099 1.08131 116.852 0.98728C117.087 0.940266 117.298 0.91676 117.486 0.91676C117.721 0.91676 117.98 0.869746 118.262 0.77572C118.92 0.540653 119.578 0.3526 120.237 0.21156C121.224 0.3526 121.976 0.540653 122.493 0.77572C123.01 1.38689 123.316 1.78651 123.41 1.97456C123.551 2.16261 123.716 2.42119 123.904 2.75028C123.998 2.89132 124.092 3.05587 124.186 3.24392C124.28 3.43197 124.35 3.59652 124.397 3.73756C124.585 4.39574 124.726 5.10094 124.82 5.85316C124.914 6.55836 124.914 7.28706 124.82 8.03928C124.726 8.32136 124.656 8.60344 124.609 8.88552C124.562 9.12058 124.515 9.37916 124.468 9.66124C124.327 10.5545 124.115 11.4948 123.833 12.482C123.551 13.4223 123.363 14.3156 123.269 15.1618ZM180.602 2.32716C180.555 2.51521 180.531 2.67976 180.531 2.8208C180.531 2.96184 180.508 3.07937 180.461 3.1734C180.978 4.11367 181.26 5.21848 181.307 6.48784C181.401 7.7572 181.495 9.00305 181.589 10.2254C181.824 9.99033 182.036 9.77877 182.224 9.59072C182.412 9.35565 182.6 9.12058 182.788 8.88552C183.023 8.65045 183.211 8.43889 183.352 8.25084C183.493 8.01577 183.658 7.7807 183.846 7.54564C183.94 7.35758 184.057 7.19304 184.198 7.052C184.386 6.91096 184.551 6.76992 184.692 6.62888C184.927 6.39381 185.162 6.13524 185.397 5.85316C185.632 5.57108 185.867 5.3125 186.102 5.07744C186.29 4.84237 186.455 4.63081 186.596 4.44276C186.784 4.25471 186.972 4.04315 187.16 3.80808C187.536 3.33795 187.912 2.86781 188.288 2.39768C188.664 1.88053 189.111 1.48092 189.628 1.19884C190.051 1.29287 190.286 1.36339 190.333 1.4104C190.38 1.45741 190.451 1.48092 190.545 1.48092C191.156 1.66897 191.509 1.95105 191.603 2.32716C191.744 2.70327 191.814 3.05587 191.814 3.38496C191.814 3.62003 191.791 3.90211 191.744 4.2312C191.697 4.56029 191.626 4.84237 191.532 5.07744C191.438 5.35952 191.321 5.6416 191.18 5.92368C191.039 6.15874 190.968 6.39381 190.968 6.62888C190.921 6.91096 190.851 7.21654 190.757 7.54564C190.71 7.82772 190.592 8.03928 190.404 8.18032C190.498 8.8385 190.357 9.37916 189.981 9.80228C189.652 10.2254 189.37 10.625 189.135 11.0011C188.947 11.2362 188.782 11.5418 188.641 11.9179C188.453 12.1529 188.335 12.388 188.288 12.6231C188.241 12.8111 188.1 13.0227 187.865 13.2578C187.724 13.4458 187.513 13.6339 187.231 13.8219C186.995 13.963 186.784 14.1275 186.596 14.3156C186.173 14.8327 185.891 15.1618 185.75 15.3028C185.609 15.4439 185.491 15.5614 185.397 15.6554C185.162 15.9375 184.974 16.2431 184.833 16.5722C184.692 16.8543 184.504 17.1128 184.269 17.3479C184.128 17.536 183.963 17.7005 183.775 17.8416C183.634 17.9356 183.516 18.0531 183.422 18.1942C183.328 18.3352 183.234 18.4997 183.14 18.6878C183.093 18.8758 183.023 19.0639 182.929 19.252C182.835 19.44 182.741 19.6046 182.647 19.7456C182.553 19.8866 182.459 20.0277 182.365 20.1687C182.271 20.3568 182.2 20.5448 182.153 20.7329C182.106 20.9209 182.012 21.109 181.871 21.297C181.495 21.9552 181.166 22.5664 180.884 23.1306C180.743 23.4126 180.625 23.7182 180.531 24.0473C180.437 24.3294 180.32 24.6115 180.179 24.8936C180.085 25.1756 179.967 25.4577 179.826 25.7398C179.685 25.9749 179.567 26.2099 179.473 26.445C179.238 26.9621 179.027 27.5263 178.839 28.1375C178.698 28.7016 178.51 29.2423 178.274 29.7594C178.086 30.1825 177.922 30.6057 177.781 31.0288C177.64 31.4519 177.452 31.8515 177.217 32.2276C176.982 33.1209 176.77 33.9906 176.582 34.8369C176.394 35.6831 176.135 36.5529 175.806 37.4461C175.477 38.3864 175.148 39.3737 174.819 40.4079C174.537 41.3952 174.255 42.3825 173.973 43.3698C173.738 44.4981 173.55 45.5559 173.409 46.5432C173.315 47.5305 173.315 48.5883 173.409 49.7166C173.691 49.7166 173.949 49.7871 174.184 49.9281C174.466 50.0692 174.748 50.0927 175.031 49.9987C175.266 49.9516 175.501 49.8341 175.736 49.6461C175.971 49.458 176.253 49.2935 176.582 49.1524C176.817 49.0584 177.005 49.0114 177.146 49.0114C177.334 48.9644 177.475 48.8468 177.569 48.6588C177.851 48.5648 178.11 48.4707 178.345 48.3767C178.58 48.2357 178.792 48.0476 178.98 47.8125C179.497 47.6715 179.967 47.4599 180.39 47.1779C180.813 46.8488 181.236 46.5667 181.659 46.3316C181.895 46.1906 182.13 46.0495 182.365 45.9085C182.6 45.7675 182.835 45.6264 183.07 45.4854C183.305 45.3914 183.54 45.2973 183.775 45.2033C184.01 45.1093 184.222 44.9682 184.41 44.7802C184.504 44.6862 184.692 44.5451 184.974 44.3571C185.256 44.169 185.468 44.028 185.609 43.9339C186.079 43.7929 186.455 43.6284 186.737 43.4403C187.019 43.2052 187.207 43.0407 187.301 42.9467C187.489 42.9937 187.771 42.8997 188.147 42.6646C188.57 42.4295 188.9 42.312 189.135 42.312C189.323 42.406 189.511 42.4765 189.699 42.5235C189.887 42.5235 190.051 42.5706 190.192 42.6646C190.145 42.8526 190.122 43.0407 190.122 43.2287C190.169 43.3698 190.192 43.5108 190.192 43.6519C190.192 43.7459 190.051 43.9574 189.769 44.2865C189.534 44.6156 189.37 44.8272 189.276 44.9212C189.135 45.1093 188.852 45.3678 188.429 45.6969C188.053 46.026 187.748 46.2376 187.513 46.3316C187.278 46.8488 186.925 47.3189 186.455 47.742C186.032 48.1181 185.632 48.4942 185.256 48.8703C184.786 49.1054 184.339 49.411 183.916 49.7871C183.493 50.1632 183.117 50.5158 182.788 50.8449C181.659 51.5031 180.508 52.2553 179.332 53.1015C178.157 53.9008 176.911 54.6295 175.595 55.2877C175.031 55.5227 174.49 55.7578 173.973 55.9929C173.456 56.2749 172.821 56.463 172.069 56.557C171.646 56.604 171.27 56.557 170.94 56.416C170.658 56.322 170.329 56.2279 169.953 56.1339C169.812 55.7108 169.624 55.3347 169.389 55.0056C169.154 54.6765 168.919 54.3474 168.684 54.0183C168.449 53.6892 168.237 53.3601 168.049 53.031C167.908 52.6549 167.838 52.2318 167.838 51.7617C167.791 51.6206 167.791 51.4561 167.838 51.268C167.885 51.08 167.932 50.8919 167.979 50.7039C168.026 50.5628 168.049 50.4218 168.049 50.2807C168.049 50.1397 168.073 49.9752 168.12 49.7871C168.214 49.27 168.308 48.7763 168.402 48.3062C168.543 47.789 168.66 47.2484 168.754 46.6842C168.707 45.932 168.731 45.2738 168.825 44.7097C168.966 44.1455 169.06 43.5343 169.107 42.8761C168.872 42.9702 168.684 43.1112 168.543 43.2993C168.449 43.4403 168.284 43.5578 168.049 43.6519C167.673 44.075 167.25 44.4746 166.78 44.8507C166.357 45.2268 165.863 45.5559 165.299 45.838C164.688 46.2611 164.1 46.7077 163.536 47.1779C162.972 47.648 162.36 48.0711 161.702 48.4472C160.668 49.3875 159.587 50.2572 158.458 51.0565C157.33 51.8087 156.225 52.6079 155.144 53.4541C154.768 53.5952 154.392 53.7362 154.016 53.8773C153.687 54.0653 153.287 54.1828 152.817 54.2299C152.3 54.5119 151.806 54.5354 151.336 54.3004C150.913 54.1123 150.513 53.9008 150.137 53.6657C149.855 53.4306 149.596 53.2191 149.361 53.031C149.173 52.843 148.938 52.6314 148.656 52.3963C148.139 51.5501 147.739 50.7744 147.457 50.0692C147.222 49.317 146.87 48.6823 146.399 48.1651C146.352 47.9301 146.282 47.742 146.188 47.601C146.094 47.4129 145.976 47.2249 145.835 47.0368C145.694 46.4256 145.6 45.8615 145.553 45.3443C145.553 44.8272 145.53 44.2865 145.483 43.7224C145.53 42.6881 145.718 41.7243 146.047 40.8311C146.423 39.9378 146.729 39.1151 146.964 38.3629C147.011 38.2218 147.034 38.0808 147.034 37.9397C147.034 37.7987 147.058 37.6577 147.105 37.5166C147.152 37.3756 147.199 37.211 147.246 37.023C147.34 36.8349 147.434 36.6469 147.528 36.4588C147.622 36.0827 147.739 35.7301 147.88 35.401C148.021 35.0719 148.139 34.7193 148.233 34.3432C148.327 34.1082 148.398 33.9201 148.445 33.7791C148.492 33.638 148.562 33.497 148.656 33.3559C148.891 32.9328 149.056 32.5097 149.15 32.0866C149.291 31.6635 149.432 31.2403 149.573 30.8172C149.949 29.5949 150.349 28.396 150.772 27.2207C151.242 25.9984 151.806 24.8465 152.464 23.7652C152.558 23.6242 152.652 23.5067 152.746 23.4126C152.887 23.2716 153.005 23.1306 153.099 22.9895L154.58 20.6624C155.097 19.9572 155.638 19.299 156.202 18.6878C156.813 18.0296 157.377 17.3714 157.894 16.7132C158.552 16.1021 159.14 15.4439 159.657 14.7387C160.174 14.0335 160.762 13.3988 161.42 12.8346C161.514 12.5526 161.679 12.341 161.914 12.2C162.149 12.0119 162.313 11.7768 162.407 11.4948C162.831 11.2127 163.183 10.8601 163.465 10.437C163.794 10.0138 164.194 9.66124 164.664 9.37916C165.557 8.39188 166.474 7.45161 167.414 6.55836C168.355 5.61809 169.295 4.67782 170.235 3.73756C171.034 3.64353 171.575 3.33795 171.857 2.8208C172.515 2.39768 173.244 1.95105 174.043 1.48092C174.89 1.01079 175.712 0.658186 176.511 0.42312C176.747 0.329093 177.052 0.3526 177.428 0.49364C177.851 0.63468 178.204 0.752213 178.486 0.84624C179.191 0.98728 179.661 1.22235 179.896 1.55144C180.132 1.83352 180.367 2.09209 180.602 2.32716ZM151.618 41.7478C151.853 42.6411 152.041 43.4403 152.182 44.1455C152.37 44.8507 152.605 45.6029 152.887 46.4021C153.075 46.4962 153.193 46.6372 153.24 46.8253C153.287 46.9663 153.428 47.0838 153.663 47.1779C153.851 47.2719 154.133 47.3424 154.509 47.3894C154.885 47.3894 155.144 47.3659 155.285 47.3189C155.52 47.2249 155.755 47.1073 155.99 46.9663C156.366 46.7782 156.719 46.5902 157.048 46.4021C157.377 46.1671 157.73 45.9555 158.106 45.7675C158.341 45.6734 158.576 45.5794 158.811 45.4854C159.046 45.3914 159.281 45.2973 159.516 45.2033C159.986 45.1093 160.386 44.9682 160.715 44.7802C161.091 44.5921 161.467 44.3806 161.843 44.1455C162.784 43.6284 163.7 43.0172 164.594 42.312C165.534 41.5598 166.451 40.9251 167.344 40.4079C168.566 38.9035 169.718 37.2345 170.799 35.401C171.928 33.5675 172.68 31.4284 173.056 28.9837C173.103 28.4195 173.15 27.9729 173.197 27.6438C173.291 27.2677 173.385 26.8916 173.479 26.5155C173.573 26.2334 173.644 25.9278 173.691 25.5988C173.785 25.2226 173.879 24.9171 173.973 24.682C174.349 23.4596 174.631 22.3078 174.819 21.2265C175.007 20.1452 175.266 19.0874 175.595 18.0531C175.736 17.677 175.853 17.3009 175.947 16.9248C176.088 16.5017 176.206 16.1256 176.3 15.7965C176.582 15.4674 176.7 15.2323 176.653 15.0913C176.653 14.9502 176.676 14.8327 176.723 14.7387C176.817 14.5036 176.911 14.3156 177.005 14.1745C177.099 13.9865 177.193 13.7749 177.287 13.5398C177.475 13.0697 177.663 12.5055 177.851 11.8474C178.039 11.1422 178.133 10.531 178.133 10.0138C177.992 9.21461 177.875 8.67396 177.781 8.39188C177.734 8.1098 177.64 7.7807 177.499 7.4046C177.358 7.02849 177.146 6.55836 176.864 5.9942C176.582 5.38302 176.253 5.03042 175.877 4.9364C175.36 4.84237 174.866 5.05393 174.396 5.57108C173.926 6.04121 173.573 6.39381 173.338 6.62888C173.244 6.7229 173.103 6.81693 172.915 6.91096C172.774 6.95797 172.656 7.052 172.562 7.19304C172.468 7.28706 172.351 7.4046 172.21 7.54564C172.116 7.68668 171.998 7.82772 171.857 7.96876C171.763 8.06278 171.646 8.18032 171.505 8.32136C171.411 8.4624 171.317 8.60344 171.222 8.74448C171.034 8.97954 170.823 9.23812 170.588 9.5202C170.4 9.75526 170.188 10.0138 169.953 10.2959C169.718 10.531 169.53 10.7896 169.389 11.0716C169.248 11.3537 169.06 11.6123 168.825 11.8474C168.543 12.1764 168.261 12.482 167.979 12.7641C167.696 13.0462 167.485 13.3753 167.344 13.7514C166.827 14.1275 166.333 14.5976 165.863 15.1618C165.628 15.4439 165.416 15.726 165.228 16.008C165.04 16.2901 164.876 16.5957 164.735 16.9248C164.359 17.1128 164.053 17.3949 163.818 17.771C163.63 18.1471 163.395 18.4527 163.113 18.6878C162.69 19.0639 162.431 19.346 162.337 19.534C162.29 19.6751 162.219 19.7926 162.125 19.8866C161.42 20.7329 160.762 21.6261 160.151 22.5664C159.587 23.5067 159.046 24.4704 158.529 25.4577C158.576 25.5988 158.552 25.7398 158.458 25.8808C158.364 25.9749 158.317 26.1394 158.317 26.3745C158.035 26.7506 157.777 27.1972 157.542 27.7143C157.354 28.0905 157.189 28.4666 157.048 28.8427C156.954 29.1718 156.836 29.5244 156.695 29.9005C156.601 30.0885 156.507 30.2531 156.413 30.3941C156.366 30.5351 156.296 30.6762 156.202 30.8172C156.108 31.0993 156.014 31.3814 155.92 31.6635C155.826 31.8985 155.732 32.1336 155.638 32.3687C155.544 32.6037 155.426 32.8388 155.285 33.0739C155.144 33.3089 154.979 33.544 154.791 33.7791C154.697 33.9671 154.627 34.1787 154.58 34.4137C154.58 34.6018 154.533 34.7899 154.439 34.9779C154.345 35.213 154.227 35.4245 154.086 35.6126C153.992 35.8006 153.898 36.0122 153.804 36.2473C153.71 36.4823 153.616 36.7409 153.522 37.023C153.475 37.2581 153.404 37.4931 153.31 37.7282C153.216 37.8692 153.122 37.9868 153.028 38.0808C152.981 38.1748 152.911 38.2688 152.817 38.3629C152.723 38.5039 152.652 38.6685 152.605 38.8565C152.558 38.9975 152.488 39.1386 152.394 39.2796C152.159 39.5147 151.924 39.7263 151.688 39.9143C151.453 40.1024 151.265 40.3609 151.124 40.69C151.218 40.7841 151.289 40.9486 151.336 41.1837C151.43 41.4187 151.524 41.6068 151.618 41.7478ZM192.872 49.7871C193.671 49.552 194.424 49.2464 195.129 48.8703C195.881 48.4942 196.704 48.1886 197.597 47.9536C198.772 47.8125 199.948 47.742 201.123 47.742C202.345 47.742 203.474 47.601 204.508 47.3189C205.636 47.1308 206.647 46.9898 207.54 46.8958C208.481 46.8018 209.35 46.9663 210.15 47.3894C210.244 47.7655 210.244 48.2357 210.15 48.7998C210.055 49.317 209.938 49.7636 209.797 50.1397C209.656 50.5628 209.538 50.8919 209.444 51.127C209.35 51.362 209.186 51.6676 208.951 52.0437C208.716 52.2318 208.457 52.3728 208.175 52.4669C207.94 52.5609 207.705 52.6784 207.47 52.8195C207.047 52.7254 206.6 52.7724 206.13 52.9605C205.989 52.7724 205.683 52.7254 205.213 52.8195C204.555 52.7724 203.944 52.8665 203.38 53.1015C202.862 53.3366 202.298 53.4071 201.687 53.3131C201.311 53.4071 200.888 53.4776 200.418 53.5247C199.995 53.5247 199.525 53.5717 199.007 53.6657C198.49 53.7597 198.02 53.9243 197.597 54.1593C197.174 54.3944 196.704 54.4649 196.187 54.3709C195.669 54.606 195.129 54.8175 194.565 55.0056C194 55.2406 193.413 55.4757 192.802 55.7108C192.284 55.9929 191.979 56.1339 191.885 56.1339C191.838 56.1339 191.767 56.1574 191.673 56.2044C191.203 56.4395 190.851 56.5805 190.615 56.6275C190.427 56.6746 190.216 56.7451 189.981 56.8391C189.605 56.8391 189.252 56.7686 188.923 56.6275C188.641 56.5335 188.312 56.416 187.936 56.2749C187.701 56.1339 187.536 55.9694 187.442 55.7813C187.348 55.6403 187.207 55.4287 187.019 55.1466C186.455 54.5825 186.055 53.9948 185.82 53.3836C185.726 53.2896 185.609 53.1956 185.468 53.1015C185.326 53.0075 185.185 52.9135 185.044 52.8195C184.809 52.0202 184.833 51.3385 185.115 50.7744C185.35 50.1632 185.585 49.552 185.82 48.9409C186.102 48.2357 186.337 47.507 186.525 46.7547C186.713 45.9555 187.042 45.2973 187.513 44.7802C187.654 44.3571 187.912 43.8634 188.288 43.2993C188.57 42.8291 188.782 42.3355 188.923 41.8183C189.111 41.3012 189.346 40.8076 189.628 40.3374C189.769 40.1024 189.91 39.8908 190.051 39.7027C190.239 39.4677 190.404 39.2561 190.545 39.0681C190.592 38.833 190.663 38.6685 190.757 38.5744C190.898 38.4804 190.992 38.3159 191.039 38.0808C191.509 37.6577 191.861 37.1405 192.096 36.5293C192.378 35.9182 192.731 35.3775 193.154 34.9074C193.53 34.3902 193.812 33.8261 194 33.2149C194.236 32.6037 194.541 32.0396 194.917 31.5224C195.105 31.0523 195.246 30.6997 195.34 30.4646C195.481 30.2296 195.622 29.971 195.763 29.6889C195.951 29.2658 196.116 28.7721 196.257 28.208C196.445 27.6438 196.657 27.1737 196.892 26.7976C196.986 26.3745 197.127 26.0219 197.315 25.7398C197.503 25.4577 197.644 25.0581 197.738 24.541C197.973 24.2119 198.138 23.8122 198.232 23.3421C198.373 22.872 198.537 22.4489 198.725 22.0728C198.725 21.8847 198.772 21.7202 198.866 21.5791C199.007 21.3911 199.031 21.2265 198.937 21.0855C199.172 20.8504 199.289 20.5683 199.289 20.2392C199.336 19.9101 199.477 19.6281 199.713 19.393C199.666 19.0639 199.783 18.7113 200.065 18.3352C200.112 18.1001 200.183 17.9121 200.277 17.771C200.418 17.583 200.512 17.4184 200.559 17.2774C200.982 16.4782 201.24 15.914 201.335 15.5849C201.476 15.2088 201.617 14.8797 201.758 14.5976C201.852 14.5036 201.946 14.4096 202.04 14.3156C202.134 14.1745 202.204 14.01 202.251 13.8219C202.345 13.5868 202.439 13.3283 202.533 13.0462C202.627 12.7641 202.721 12.5055 202.815 12.2705C202.909 12.0354 202.98 11.8238 203.027 11.6358C203.074 11.4477 203.145 11.2832 203.239 11.1422C203.568 10.672 203.709 10.4134 203.662 10.3664C203.662 10.3194 203.685 10.2724 203.732 10.2254C203.826 9.99033 203.92 9.77877 204.014 9.59072C204.108 9.40266 204.202 9.21461 204.296 9.02656C204.814 7.7572 205.237 6.7229 205.566 5.92368C205.942 5.12445 206.365 4.32523 206.835 3.526C206.835 3.14989 206.788 2.77379 206.694 2.39768C206.6 1.97456 206.647 1.59845 206.835 1.26936C207.211 1.08131 207.564 0.869746 207.893 0.63468C208.269 0.3526 208.669 0.164547 209.092 0.07052C209.28 0.0235067 209.444 0.117533 209.585 0.3526C209.773 0.540653 209.938 0.681693 210.079 0.77572C210.502 1.15183 210.878 1.62196 211.207 2.18612C211.583 2.70327 211.866 3.24392 212.054 3.80808C212.148 4.18419 212.171 4.63081 212.124 5.14796C212.124 5.61809 212.054 6.0177 211.913 6.3468C211.771 6.86394 211.583 7.26356 211.348 7.54564C211.442 8.15681 211.419 8.67396 211.278 9.09708C211.184 9.5202 211.066 9.91981 210.925 10.2959C210.455 10.766 210.079 11.3302 209.797 11.9884C209.515 12.3175 209.28 12.6936 209.092 13.1167C208.904 13.4928 208.692 13.8689 208.457 14.245C208.269 14.6211 208.057 14.9972 207.822 15.3734C207.587 15.7495 207.399 16.1726 207.258 16.6427C206.835 17.1599 206.577 17.5595 206.482 17.8416C206.435 18.0766 206.294 18.2882 206.059 18.4762C205.495 19.6986 205.002 20.8504 204.578 21.9317C204.155 22.966 203.685 23.9768 203.168 24.9641C203.215 25.1991 203.168 25.3872 203.027 25.5282C202.886 25.6223 202.839 25.7868 202.886 26.0219C202.416 26.8681 202.063 27.8319 201.828 28.9132C201.64 29.9945 201.288 30.9583 200.77 31.8045C200.347 33.1679 199.807 34.4137 199.148 35.5421C198.537 36.6234 197.973 37.7987 197.456 39.0681C197.221 39.1621 197.056 39.4442 196.962 39.9143C196.445 40.7135 196.022 41.6068 195.693 42.5941C195.411 43.5813 195.035 44.4981 194.565 45.3443C194.33 46.0495 194.024 46.7782 193.648 47.5305C193.272 48.2827 193.013 49.0349 192.872 49.7871ZM249.852 2.32716C249.57 2.93833 249.406 3.36145 249.359 3.59652C249.359 3.83159 249.312 4.06665 249.218 4.30172C249.124 4.53678 249.053 4.70133 249.006 4.79536C249.006 4.88938 248.959 5.03042 248.865 5.21848C248.724 5.45354 248.583 5.57108 248.442 5.57108C248.301 5.57108 248.113 5.68861 247.878 5.92368C247.784 6.06472 247.666 6.20576 247.525 6.3468C247.384 6.48784 247.267 6.60537 247.173 6.6994C247.031 6.93446 246.937 7.14602 246.89 7.33408C246.843 7.52213 246.679 7.66317 246.397 7.7572C246.256 7.80421 246.091 7.82772 245.903 7.82772C245.762 7.7807 245.645 7.80421 245.551 7.89824C245.033 8.08629 244.61 8.20382 244.281 8.25084C243.952 8.29785 243.599 8.34486 243.223 8.39188C242.659 8.62694 242.283 8.74448 242.095 8.74448C241.907 8.74448 241.719 8.76798 241.531 8.815C241.343 8.86201 241.131 8.93253 240.896 9.02656C240.708 9.07357 240.473 9.14409 240.191 9.23812C239.956 10.0373 239.627 10.719 239.204 11.2832C238.781 11.8474 238.428 12.529 238.146 13.3283C237.3 14.6917 236.547 15.961 235.889 17.1364C235.278 18.3117 234.714 19.44 234.197 20.5213C233.962 20.7564 233.75 21.0385 233.562 21.3676C233.421 21.6966 233.257 22.0492 233.069 22.4254C232.833 22.8955 232.692 23.1541 232.645 23.2011C232.598 23.2481 232.551 23.3186 232.504 23.4126C232.41 23.6007 232.316 23.8122 232.222 24.0473C232.128 24.2354 232.034 24.4469 231.94 24.682C231.658 25.0581 231.447 25.3872 231.306 25.6693C231.211 25.9043 231.117 26.1394 231.023 26.3745C230.882 26.6095 230.741 26.8446 230.6 27.0797C230.459 27.3147 230.318 27.5733 230.177 27.8554C229.707 28.9837 229.284 29.971 228.908 30.8172C228.579 31.6165 228.297 32.4862 228.062 33.4265C227.968 33.7556 227.85 34.1317 227.709 34.5548C227.615 34.9779 227.497 35.307 227.356 35.5421C226.463 37.8457 225.546 40.1964 224.606 42.5941C223.666 44.9917 222.773 47.4129 221.926 49.8576C222.679 49.8576 223.29 49.7401 223.76 49.505C224.23 49.2229 224.865 49.0819 225.664 49.0819C226.181 49.7871 226.228 50.4923 225.805 51.1975C225.429 51.6676 225.217 52.0202 225.17 52.2553C225.123 52.4904 225.053 52.7019 224.959 52.89C224.677 53.2191 224.489 53.4541 224.395 53.5952C224.348 53.7362 224.254 53.8773 224.112 54.0183C223.689 54.3944 222.961 54.653 221.926 54.794C221.409 54.888 220.963 55.0056 220.586 55.1466C220.257 55.3347 219.881 55.4757 219.458 55.5697C219.176 55.6168 218.918 55.6638 218.682 55.7108C218.447 55.7578 218.236 55.8048 218.048 55.8518C217.86 55.8518 217.672 55.8283 217.484 55.7813C217.343 55.7813 217.202 55.8283 217.06 55.9223C216.261 55.9223 215.58 55.9694 215.015 56.0634C214.498 56.1574 213.981 56.2749 213.464 56.416C213.088 56.51 212.735 56.6275 212.406 56.7686C212.03 56.9096 211.63 56.9801 211.207 56.9801C211.066 56.9801 210.925 56.9331 210.784 56.8391C210.643 56.7921 210.479 56.7686 210.291 56.7686C210.15 56.6275 210.008 56.4395 209.867 56.2044C209.726 56.0164 209.656 55.8048 209.656 55.5697C209.656 55.3347 209.703 55.0996 209.797 54.8645C209.844 54.6765 209.844 54.4649 209.797 54.2299C209.797 53.6657 210.008 53.2426 210.432 52.9605C210.808 52.6314 211.113 52.2788 211.348 51.9027C212.054 51.8087 212.688 51.6441 213.252 51.4091C213.77 51.174 214.404 51.0094 215.156 50.9154C215.815 48.9879 216.543 47.0133 217.343 44.9917C218.142 42.9702 218.918 40.9956 219.67 39.0681C219.811 38.692 219.952 38.3394 220.093 38.0103C220.281 37.6342 220.445 37.2581 220.586 36.8819C220.822 36.2708 221.057 35.6831 221.292 35.1189C221.527 34.5078 221.785 33.8966 222.067 33.2854C222.349 32.9563 222.561 32.5567 222.702 32.0866C222.796 31.8515 222.843 31.6635 222.843 31.5224C222.89 31.3344 222.961 31.1228 223.055 30.8877C223.243 30.5116 223.454 30.1355 223.689 29.7594C223.924 29.3833 224.159 29.0072 224.395 28.6311C224.724 28.161 225.053 27.7143 225.382 27.2912C225.758 26.8211 226.111 26.351 226.44 25.8808C226.769 24.9406 227.121 24.0473 227.497 23.2011C227.921 22.3078 228.32 21.4146 228.696 20.5213C228.79 19.9101 228.978 19.252 229.26 18.5468C229.59 17.7945 229.872 17.1599 230.107 16.6427C230.389 16.1256 230.624 15.5849 230.812 15.0208C231 14.4096 231.258 13.8454 231.588 13.3283C231.682 12.9992 231.799 12.7171 231.94 12.482C232.081 12.2 232.199 11.8944 232.293 11.5653C232.481 11.2832 232.622 10.9776 232.716 10.6485C232.857 10.2724 232.998 9.8963 233.139 9.5202C232.951 9.61422 232.763 9.68474 232.575 9.73176C232.434 9.73176 232.269 9.75526 232.081 9.80228C231.94 9.84929 231.776 9.91981 231.588 10.0138C231.4 10.1079 231.188 10.1784 230.953 10.2254C230.201 10.3194 229.543 10.3194 228.978 10.2254C228.367 10.1314 227.968 9.70825 227.78 8.95604C227.733 8.57993 227.803 8.39188 227.991 8.39188C228.226 8.34486 228.391 8.15681 228.485 7.82772C228.438 6.74641 228.579 5.94718 228.908 5.43004C229.237 4.86588 229.66 4.53678 230.177 4.44276C230.412 4.34873 230.624 4.30172 230.812 4.30172C231 4.30172 231.188 4.20769 231.376 4.01964C231.846 3.8786 232.316 3.80808 232.786 3.80808C233.304 3.76107 233.821 3.69055 234.338 3.59652C234.855 3.50249 235.349 3.43197 235.819 3.38496C236.289 3.29093 236.736 3.24392 237.159 3.24392C237.676 3.10288 238.146 2.98535 238.569 2.89132C238.992 2.75028 239.509 2.70327 240.121 2.75028C240.45 2.75028 240.755 2.79729 241.037 2.89132C241.319 2.93833 241.625 2.96184 241.954 2.96184C242.283 2.96184 242.589 2.98535 242.871 3.03236C243.2 3.07937 243.552 3.05587 243.929 2.96184C244.211 2.91483 244.469 2.8208 244.704 2.67976C244.986 2.53872 245.268 2.51521 245.551 2.60924C246.021 2.51521 246.491 2.42119 246.961 2.32716C247.478 2.23313 247.995 2.18612 248.512 2.18612C249.03 2.23313 249.288 2.23313 249.288 2.18612C249.288 2.09209 249.359 2.06859 249.5 2.1156L249.852 2.32716ZM248.653 11.7063C248.888 11.3302 249.03 11.0011 249.077 10.719C249.124 10.3899 249.265 10.0373 249.5 9.66124C250.44 9.14409 251.286 8.53292 252.038 7.82772C252.791 7.0755 253.66 6.46433 254.648 5.9942C255.306 5.52406 255.823 5.21848 256.199 5.07744C256.622 4.88938 257.022 4.65432 257.398 4.37224C257.821 4.18419 258.221 3.99613 258.597 3.80808C259.02 3.62003 259.49 3.45548 260.007 3.31444C260.383 3.22041 260.712 3.10288 260.994 2.96184C261.277 2.77379 261.559 2.63275 261.841 2.53872C262.499 2.30365 263.157 2.09209 263.815 1.90404C264.473 1.71599 265.108 1.52793 265.719 1.33988C265.954 1.24585 266.236 1.12832 266.565 0.98728C266.895 0.84624 267.2 0.799226 267.482 0.84624C267.999 0.940266 268.305 0.963773 268.399 0.91676C268.54 0.869746 268.658 0.84624 268.752 0.84624C269.128 0.799226 269.433 0.84624 269.668 0.98728C269.95 1.12832 270.256 1.24585 270.585 1.33988C270.867 1.43391 271.126 1.50443 271.361 1.55144C271.643 1.59845 271.902 1.66897 272.137 1.763C272.372 1.85703 272.56 1.99807 272.701 2.18612C272.889 2.32716 273.053 2.4682 273.194 2.60924C273.382 2.70327 273.547 2.8208 273.688 2.96184C273.876 3.10288 274.064 3.24392 274.252 3.38496C274.628 4.18419 275.051 4.98341 275.522 5.78264C275.992 6.58186 276.227 7.54564 276.227 8.67396C275.945 9.09708 275.78 9.30864 275.733 9.30864C275.686 9.30864 275.639 9.35565 275.592 9.44968C275.075 9.77877 274.699 10.0844 274.464 10.3664C274.229 10.6015 273.97 10.8601 273.688 11.1422L272.701 12.1294C272.56 12.2235 272.395 12.3175 272.207 12.4115C272.019 12.4585 271.902 12.5996 271.854 12.8346C271.478 13.0227 271.173 13.2578 270.938 13.5398C270.703 13.8219 270.397 14.0335 270.021 14.1745C269.598 14.6917 269.081 15.1148 268.47 15.4439C267.858 15.726 267.294 16.055 266.777 16.4312C266.26 16.7602 265.907 16.9718 265.719 17.0658C265.578 17.1599 265.437 17.2774 265.296 17.4184C264.779 17.6535 264.309 17.8886 263.886 18.1236C263.51 18.3587 263.063 18.5703 262.546 18.7583C262.311 18.8523 262.076 18.9699 261.841 19.1109C261.653 19.252 261.394 19.299 261.065 19.252C260.83 19.1579 260.595 19.0639 260.36 18.9699C260.125 18.8288 259.913 18.9229 259.725 19.252C259.114 19.346 258.526 19.252 257.962 18.9699C257.445 18.6408 257.163 18.1942 257.116 17.63C256.552 17.1599 256.387 16.5252 256.622 15.726C256.716 15.3498 256.881 14.9737 257.116 14.5976C257.398 14.2215 257.633 13.8689 257.821 13.5398C258.056 13.1167 258.268 12.7171 258.456 12.341C258.644 11.9179 258.855 11.5183 259.09 11.1422C259.749 10.437 260.407 9.77877 261.065 9.1676C261.77 8.55642 262.64 8.1333 263.674 7.89824C264.003 7.80421 264.332 7.71018 264.661 7.61616C264.991 7.52213 265.296 7.4281 265.578 7.33408C265.719 7.4281 265.86 7.4281 266.001 7.33408C266.142 7.24005 266.283 7.24005 266.424 7.33408C266.613 7.47512 266.683 7.63966 266.636 7.82772C266.589 8.01577 266.565 8.22733 266.565 8.4624C266.424 8.65045 266.236 8.79149 266.001 8.88552C265.766 8.93253 265.531 9.00305 265.296 9.09708C265.108 9.14409 264.92 9.23812 264.732 9.37916C264.544 9.47318 264.426 9.66124 264.379 9.94332C263.063 11.0716 261.888 12.482 260.853 14.1745C260.994 14.2685 261.182 14.3861 261.418 14.5271C261.653 14.6682 261.888 14.7622 262.123 14.8092C262.499 14.9032 262.922 14.8092 263.392 14.5271C263.909 14.245 264.309 14.0335 264.591 13.8924C265.907 13.2813 267.083 12.4585 268.117 11.4242C268.399 11.1892 268.681 10.9306 268.963 10.6485C269.292 10.3664 269.527 10.0844 269.668 9.80228C269.856 9.56721 270.021 9.33214 270.162 9.09708C270.303 8.86201 270.491 8.67396 270.726 8.53292C270.773 8.1098 270.703 7.7807 270.515 7.54564C270.374 7.26356 270.186 7.00498 269.95 6.76992C269.762 6.48784 269.551 6.22926 269.316 5.9942C269.081 5.75913 268.916 5.47705 268.822 5.14796C268.587 5.05393 268.376 4.88938 268.187 4.65432C268.046 4.41925 267.858 4.25471 267.623 4.16068C267.529 4.16068 267.318 4.13717 266.989 4.09016C266.707 4.04315 266.542 4.01964 266.495 4.01964C265.32 4.25471 264.403 4.51328 263.745 4.79536C263.087 5.07744 262.428 5.35952 261.77 5.6416C260.172 6.48784 258.691 7.47512 257.327 8.60344C257.186 8.69746 257.022 8.79149 256.834 8.88552C256.646 8.97954 256.505 9.07357 256.411 9.1676C256.176 9.35565 255.964 9.59072 255.776 9.8728C255.635 10.1549 255.447 10.437 255.212 10.719C254.977 11.0481 254.718 11.3772 254.436 11.7063C254.201 11.9884 254.036 12.3175 253.942 12.6936C253.66 12.8346 253.472 13.1167 253.378 13.5398C253.284 13.9159 253.12 14.2215 252.885 14.4566C252.791 14.8327 252.673 15.1853 252.532 15.5144C252.391 15.7965 252.273 16.1491 252.179 16.5722C252.603 17.4184 252.908 18.0766 253.096 18.5468C253.331 19.0169 253.566 19.487 253.801 19.9572C253.848 20.4743 253.989 20.9444 254.225 21.3676C254.507 21.7437 254.765 22.1903 255 22.7074C255.658 23.7887 256.246 24.9406 256.763 26.1629C257.327 27.3382 257.939 28.4666 258.597 29.5479C258.879 30.2061 259.137 30.8642 259.372 31.5224C259.655 32.1336 260.054 32.6743 260.571 33.1444C260.665 33.4735 260.783 33.8026 260.924 34.1317C261.112 34.4137 261.277 34.7193 261.418 35.0484C261.606 35.6126 261.864 36.2238 262.193 36.8819C262.334 37.2581 262.499 37.5871 262.687 37.8692C262.875 38.1513 263.016 38.4334 263.11 38.7155C263.298 39.1386 263.439 39.6792 263.533 40.3374C263.674 40.9486 263.721 41.4657 263.674 41.8889C263.674 42.359 263.651 42.6881 263.604 42.8761C263.557 43.0642 263.486 43.2287 263.392 43.3698C263.298 43.4638 263.204 43.5813 263.11 43.7224C263.016 43.8634 262.922 44.1455 262.828 44.5686C262.405 45.3208 261.911 46.0025 261.347 46.6137C260.783 47.2249 260.289 47.9301 259.866 48.7293C259.584 49.1054 259.278 49.4345 258.949 49.7166C258.62 49.9987 258.291 50.2807 257.962 50.5628C257.633 50.7979 257.28 51.0094 256.904 51.1975C256.575 51.3856 256.27 51.6206 255.988 51.9027C255.188 52.6079 254.342 53.125 253.449 53.4541C252.603 53.7362 251.803 54.1358 251.051 54.653C250.769 54.653 250.487 54.6765 250.205 54.7235C249.923 54.8175 249.641 54.9116 249.359 55.0056C249.124 55.0996 248.865 55.1936 248.583 55.2877C248.348 55.3817 248.089 55.4757 247.807 55.5697C247.572 55.6638 247.361 55.7578 247.173 55.8518C247.031 55.9458 246.843 56.0399 246.608 56.1339C245.95 56.2749 245.245 56.3455 244.493 56.3455C243.741 56.3925 242.965 56.322 242.166 56.1339C241.272 55.8048 240.567 55.6638 240.05 55.7108C239.58 55.7578 239.157 55.5697 238.781 55.1466C238.546 55.0526 238.405 54.9351 238.358 54.794C238.358 54.653 238.263 54.5119 238.075 54.3709C237.558 53.9478 237.229 53.6892 237.088 53.5952C236.947 53.5012 236.806 53.3836 236.665 53.2426C235.96 52.6784 235.396 52.0202 234.973 51.268C234.832 51.033 234.69 50.7979 234.549 50.5628C234.408 50.3278 234.314 50.1162 234.267 49.9281C234.173 49.6461 234.173 49.364 234.267 49.0819C234.314 48.7528 234.244 48.4472 234.056 48.1651C234.103 47.836 234.103 47.4834 234.056 47.1073C234.009 46.7312 233.985 46.4021 233.985 46.1201C233.985 45.6969 234.056 45.2738 234.197 44.8507C234.291 44.4276 234.267 44.0985 234.126 43.8634C234.22 43.2523 234.361 42.8056 234.549 42.5235C234.737 42.1945 234.973 41.8419 235.255 41.4657C236.054 41.0896 236.712 40.7605 237.229 40.4785C237.793 40.1494 238.358 39.8438 238.922 39.5617C239.157 39.4677 239.345 39.3737 239.486 39.2796C239.674 39.1856 239.862 39.0916 240.05 38.9975C240.473 38.7625 240.92 38.5744 241.39 38.4334C241.86 38.2923 242.354 38.1043 242.871 37.8692C243.294 37.6342 243.717 37.4226 244.14 37.2345C244.61 37.0465 245.057 36.8349 245.48 36.5999C245.762 36.5999 246.021 36.5293 246.256 36.3883C246.538 36.2473 246.843 36.1767 247.173 36.1767C247.267 36.1767 247.384 36.2003 247.525 36.2473C247.666 36.2473 247.807 36.2473 247.948 36.2473C248.183 36.2473 248.442 36.2473 248.724 36.2473C249.006 36.2473 249.265 36.2943 249.5 36.3883C249.735 36.4823 249.946 36.6234 250.134 36.8114C250.322 36.9995 250.581 37.0935 250.91 37.0935C251.239 37.4226 251.498 37.7987 251.686 38.2218C251.921 38.5979 252.109 38.9975 252.25 39.4207C252.344 39.6557 252.414 39.9848 252.462 40.4079C252.556 40.8311 252.603 41.1837 252.603 41.4657C252.556 42.1709 252.297 42.7116 251.827 43.0877C251.404 43.4638 251.004 43.9104 250.628 44.4276C249.97 44.6626 249.241 45.0623 248.442 45.6264C247.972 45.5794 247.549 45.6734 247.173 45.9085C246.796 46.0966 246.35 46.2611 245.833 46.4021C245.598 46.4492 245.339 46.4492 245.057 46.4021C244.775 46.3551 244.516 46.3786 244.281 46.4727C244.046 46.5197 243.811 46.6137 243.576 46.7547C243.341 46.8958 243.106 46.9193 242.871 46.8253C242.636 46.7312 242.448 46.5432 242.307 46.2611C242.213 45.979 242.213 45.6969 242.307 45.4149C242.589 44.9447 242.988 44.6626 243.505 44.5686C244.07 44.4276 244.61 44.216 245.127 43.9339C245.598 43.6989 245.997 43.3933 246.326 43.0172C246.702 42.6411 247.078 42.265 247.455 41.8889C247.69 41.6068 247.972 41.3247 248.301 41.0426C248.63 40.7605 248.7 40.3844 248.512 39.9143C248.089 39.5852 247.596 39.4912 247.031 39.6322C246.514 39.7733 246.044 39.9378 245.621 40.1259C244.775 40.502 243.929 40.9016 243.082 41.3247C242.283 41.7478 241.484 42.1474 240.685 42.5235C240.309 42.6646 240.026 42.8291 239.838 43.0172C239.744 43.1582 239.674 43.3463 239.627 43.5813C239.58 43.8164 239.509 44.028 239.415 44.216C239.086 44.9212 238.992 45.6264 239.133 46.3316C239.227 46.5667 239.345 46.8018 239.486 47.0368C239.627 47.2249 239.697 47.4364 239.697 47.6715C239.885 47.8596 240.05 48.0476 240.191 48.2357C240.332 48.3767 240.473 48.5412 240.614 48.7293C240.755 48.8233 240.873 48.8938 240.967 48.9409C241.061 48.9409 241.202 48.9644 241.39 49.0114C241.86 49.2935 242.424 49.552 243.082 49.7871C243.364 49.8811 243.788 50.0222 244.352 50.2102C244.963 50.3983 245.386 50.4923 245.621 50.4923C245.856 50.5393 246.162 50.4923 246.538 50.3513C246.914 50.2102 247.243 50.0927 247.525 49.9987C248.606 49.4815 249.711 48.9409 250.84 48.3767C251.968 47.8125 253.073 47.2719 254.154 46.7547C254.53 46.5197 254.883 46.2611 255.212 45.979C255.541 45.6499 255.823 45.2973 256.058 44.9212C256.481 44.4041 256.834 43.7694 257.116 43.0172C257.398 42.265 257.609 41.4893 257.751 40.69C257.798 40.502 257.821 40.3374 257.821 40.1964C257.821 40.0083 257.821 39.8438 257.821 39.7027C257.539 39.1856 257.398 38.88 257.398 38.786C257.445 38.6449 257.421 38.5274 257.327 38.4334C256.998 37.8692 256.787 37.4931 256.693 37.3051C256.646 37.07 256.575 36.8584 256.481 36.6704C256.152 36.1532 255.752 35.7066 255.282 35.3305C254.812 34.9544 254.507 34.3902 254.366 33.638C254.083 33.403 253.872 33.0974 253.731 32.7213C253.637 32.3452 253.402 32.1101 253.026 32.0161C252.932 31.781 252.838 31.5929 252.744 31.4519C252.697 31.2639 252.626 31.0288 252.532 30.7467C252.25 30.4176 252.038 30.065 251.897 29.6889C251.615 29.4538 251.38 29.1953 251.192 28.9132C251.004 28.6311 250.793 28.3255 250.557 27.9964C250.181 27.6203 249.923 27.3382 249.782 27.1502C249.594 26.9151 249.429 26.6565 249.288 26.3745C249.194 26.0924 249.03 25.8338 248.794 25.5988C248.653 25.3637 248.465 25.1521 248.23 24.9641C248.042 24.776 247.901 24.541 247.807 24.2589C247.431 23.8358 247.125 23.3656 246.89 22.8485C246.655 22.2843 246.467 21.6731 246.326 21.015C246.42 20.4508 246.326 19.9572 246.044 19.534C245.762 19.1109 245.692 18.5703 245.833 17.9121C246.068 17.2539 246.326 16.5957 246.608 15.9375C246.89 15.2793 247.125 14.6682 247.314 14.104C247.549 14.01 247.69 13.8454 247.737 13.6104C247.784 13.3283 247.854 13.0697 247.948 12.8346L248.653 11.7063ZM304.787 2.32716C304.74 2.51521 304.717 2.67976 304.717 2.8208C304.717 2.96184 304.693 3.07937 304.646 3.1734C305.163 4.11367 305.446 5.21848 305.493 6.48784C305.587 7.7572 305.681 9.00305 305.775 10.2254C306.01 9.99033 306.221 9.77877 306.409 9.59072C306.597 9.35565 306.785 9.12058 306.973 8.88552C307.209 8.65045 307.397 8.43889 307.538 8.25084C307.679 8.01577 307.843 7.7807 308.031 7.54564C308.125 7.35758 308.243 7.19304 308.384 7.052C308.572 6.91096 308.736 6.76992 308.877 6.62888C309.113 6.39381 309.348 6.13524 309.583 5.85316C309.818 5.57108 310.053 5.3125 310.288 5.07744C310.476 4.84237 310.64 4.63081 310.782 4.44276C310.97 4.25471 311.158 4.04315 311.346 3.80808C311.722 3.33795 312.098 2.86781 312.474 2.39768C312.85 1.88053 313.297 1.48092 313.814 1.19884C314.237 1.29287 314.472 1.36339 314.519 1.4104C314.566 1.45741 314.637 1.48092 314.731 1.48092C315.342 1.66897 315.694 1.95105 315.788 2.32716C315.929 2.70327 316 3.05587 316 3.38496C316 3.62003 315.976 3.90211 315.929 4.2312C315.882 4.56029 315.812 4.84237 315.718 5.07744C315.624 5.35952 315.506 5.6416 315.365 5.92368C315.224 6.15874 315.154 6.39381 315.154 6.62888C315.107 6.91096 315.036 7.21654 314.942 7.54564C314.895 7.82772 314.778 8.03928 314.59 8.18032C314.684 8.8385 314.543 9.37916 314.166 9.80228C313.837 10.2254 313.555 10.625 313.32 11.0011C313.132 11.2362 312.968 11.5418 312.827 11.9179C312.639 12.1529 312.521 12.388 312.474 12.6231C312.427 12.8111 312.286 13.0227 312.051 13.2578C311.91 13.4458 311.698 13.6339 311.416 13.8219C311.181 13.963 310.97 14.1275 310.782 14.3156C310.358 14.8327 310.076 15.1618 309.935 15.3028C309.794 15.4439 309.677 15.5614 309.583 15.6554C309.348 15.9375 309.16 16.2431 309.019 16.5722C308.877 16.8543 308.689 17.1128 308.454 17.3479C308.313 17.536 308.149 17.7005 307.961 17.8416C307.82 17.9356 307.702 18.0531 307.608 18.1942C307.514 18.3352 307.42 18.4997 307.326 18.6878C307.279 18.8758 307.209 19.0639 307.114 19.252C307.02 19.44 306.926 19.6046 306.832 19.7456C306.738 19.8866 306.644 20.0277 306.55 20.1687C306.456 20.3568 306.386 20.5448 306.339 20.7329C306.292 20.9209 306.198 21.109 306.057 21.297C305.681 21.9552 305.351 22.5664 305.069 23.1306C304.928 23.4126 304.811 23.7182 304.717 24.0473C304.623 24.3294 304.505 24.6115 304.364 24.8936C304.27 25.1756 304.153 25.4577 304.012 25.7398C303.871 25.9749 303.753 26.2099 303.659 26.445C303.424 26.9621 303.212 27.5263 303.024 28.1375C302.883 28.7016 302.695 29.2423 302.46 29.7594C302.272 30.1825 302.108 30.6057 301.967 31.0288C301.825 31.4519 301.637 31.8515 301.402 32.2276C301.167 33.1209 300.956 33.9906 300.768 34.8369C300.58 35.6831 300.321 36.5529 299.992 37.4461C299.663 38.3864 299.334 39.3737 299.005 40.4079C298.723 41.3952 298.441 42.3825 298.158 43.3698C297.923 44.4981 297.735 45.5559 297.594 46.5432C297.5 47.5305 297.5 48.5883 297.594 49.7166C297.876 49.7166 298.135 49.7871 298.37 49.9281C298.652 50.0692 298.934 50.0927 299.216 49.9987C299.451 49.9516 299.686 49.8341 299.921 49.6461C300.157 49.458 300.439 49.2935 300.768 49.1524C301.003 49.0584 301.191 49.0114 301.332 49.0114C301.52 48.9644 301.661 48.8468 301.755 48.6588C302.037 48.5648 302.296 48.4707 302.531 48.3767C302.766 48.2357 302.977 48.0476 303.165 47.8125C303.683 47.6715 304.153 47.4599 304.576 47.1779C304.999 46.8488 305.422 46.5667 305.845 46.3316C306.08 46.1906 306.315 46.0495 306.55 45.9085C306.785 45.7675 307.02 45.6264 307.256 45.4854C307.491 45.3914 307.726 45.2973 307.961 45.2033C308.196 45.1093 308.407 44.9682 308.595 44.7802C308.689 44.6862 308.877 44.5451 309.16 44.3571C309.442 44.169 309.653 44.028 309.794 43.9339C310.264 43.7929 310.64 43.6284 310.923 43.4403C311.205 43.2052 311.393 43.0407 311.487 42.9467C311.675 42.9937 311.957 42.8997 312.333 42.6646C312.756 42.4295 313.085 42.312 313.32 42.312C313.508 42.406 313.696 42.4765 313.884 42.5235C314.072 42.5235 314.237 42.5706 314.378 42.6646C314.331 42.8526 314.308 43.0407 314.308 43.2287C314.355 43.3698 314.378 43.5108 314.378 43.6519C314.378 43.7459 314.237 43.9574 313.955 44.2865C313.72 44.6156 313.555 44.8272 313.461 44.9212C313.32 45.1093 313.038 45.3678 312.615 45.6969C312.239 46.026 311.933 46.2376 311.698 46.3316C311.463 46.8488 311.111 47.3189 310.64 47.742C310.217 48.1181 309.818 48.4942 309.442 48.8703C308.972 49.1054 308.525 49.411 308.102 49.7871C307.679 50.1632 307.303 50.5158 306.973 50.8449C305.845 51.5031 304.693 52.2553 303.518 53.1015C302.343 53.9008 301.097 54.6295 299.78 55.2877C299.216 55.5227 298.676 55.7578 298.158 55.9929C297.641 56.2749 297.007 56.463 296.254 56.557C295.831 56.604 295.455 56.557 295.126 56.416C294.844 56.322 294.515 56.2279 294.139 56.1339C293.998 55.7108 293.81 55.3347 293.575 55.0056C293.34 54.6765 293.105 54.3474 292.869 54.0183C292.634 53.6892 292.423 53.3601 292.235 53.031C292.094 52.6549 292.023 52.2318 292.023 51.7617C291.976 51.6206 291.976 51.4561 292.023 51.268C292.07 51.08 292.117 50.8919 292.164 50.7039C292.211 50.5628 292.235 50.4218 292.235 50.2807C292.235 50.1397 292.258 49.9752 292.305 49.7871C292.399 49.27 292.493 48.7763 292.587 48.3062C292.728 47.789 292.846 47.2484 292.94 46.6842C292.893 45.932 292.916 45.2738 293.01 44.7097C293.152 44.1455 293.246 43.5343 293.293 42.8761C293.058 42.9702 292.869 43.1112 292.728 43.2993C292.634 43.4403 292.47 43.5578 292.235 43.6519C291.859 44.075 291.436 44.4746 290.965 44.8507C290.542 45.2268 290.049 45.5559 289.484 45.838C288.873 46.2611 288.286 46.7077 287.721 47.1779C287.157 47.648 286.546 48.0711 285.888 48.4472C284.854 49.3875 283.772 50.2572 282.644 51.0565C281.516 51.8087 280.411 52.6079 279.33 53.4541C278.954 53.5952 278.577 53.7362 278.201 53.8773C277.872 54.0653 277.473 54.1828 277.002 54.2299C276.485 54.5119 275.992 54.5354 275.522 54.3004C275.098 54.1123 274.699 53.9008 274.323 53.6657C274.041 53.4306 273.782 53.2191 273.547 53.031C273.359 52.843 273.124 52.6314 272.842 52.3963C272.325 51.5501 271.925 50.7744 271.643 50.0692C271.408 49.317 271.055 48.6823 270.585 48.1651C270.538 47.9301 270.468 47.742 270.374 47.601C270.28 47.4129 270.162 47.2249 270.021 47.0368C269.88 46.4256 269.786 45.8615 269.739 45.3443C269.739 44.8272 269.715 44.2865 269.668 43.7224C269.715 42.6881 269.903 41.7243 270.233 40.8311C270.609 39.9378 270.914 39.1151 271.149 38.3629C271.196 38.2218 271.22 38.0808 271.22 37.9397C271.22 37.7987 271.243 37.6577 271.29 37.5166C271.337 37.3756 271.384 37.211 271.431 37.023C271.525 36.8349 271.619 36.6469 271.713 36.4588C271.807 36.0827 271.925 35.7301 272.066 35.401C272.207 35.0719 272.325 34.7193 272.419 34.3432C272.513 34.1082 272.583 33.9201 272.63 33.7791C272.677 33.638 272.748 33.497 272.842 33.3559C273.077 32.9328 273.241 32.5097 273.335 32.0866C273.476 31.6635 273.617 31.2403 273.759 30.8172C274.135 29.5949 274.534 28.396 274.957 27.2207C275.428 25.9984 275.992 24.8465 276.65 23.7652C276.744 23.6242 276.838 23.5067 276.932 23.4126C277.073 23.2716 277.191 23.1306 277.285 22.9895L278.765 20.6624C279.283 19.9572 279.823 19.299 280.387 18.6878C280.999 18.0296 281.563 17.3714 282.08 16.7132C282.738 16.1021 283.326 15.4439 283.843 14.7387C284.36 14.0335 284.948 13.3988 285.606 12.8346C285.7 12.5526 285.864 12.341 286.1 12.2C286.335 12.0119 286.499 11.7768 286.593 11.4948C287.016 11.2127 287.369 10.8601 287.651 10.437C287.98 10.0138 288.38 9.66124 288.85 9.37916C289.743 8.39188 290.66 7.45161 291.6 6.55836C292.54 5.61809 293.481 4.67782 294.421 3.73756C295.22 3.64353 295.761 3.33795 296.043 2.8208C296.701 2.39768 297.43 1.95105 298.229 1.48092C299.075 1.01079 299.898 0.658186 300.697 0.42312C300.932 0.329093 301.238 0.3526 301.614 0.49364C302.037 0.63468 302.39 0.752213 302.672 0.84624C303.377 0.98728 303.847 1.22235 304.082 1.55144C304.317 1.83352 304.552 2.09209 304.787 2.32716ZM275.804 41.7478C276.039 42.6411 276.227 43.4403 276.368 44.1455C276.556 44.8507 276.791 45.6029 277.073 46.4021C277.261 46.4962 277.379 46.6372 277.426 46.8253C277.473 46.9663 277.614 47.0838 277.849 47.1779C278.037 47.2719 278.319 47.3424 278.695 47.3894C279.071 47.3894 279.33 47.3659 279.471 47.3189C279.706 47.2249 279.941 47.1073 280.176 46.9663C280.552 46.7782 280.905 46.5902 281.234 46.4021C281.563 46.1671 281.915 45.9555 282.291 45.7675C282.527 45.6734 282.762 45.5794 282.997 45.4854C283.232 45.3914 283.467 45.2973 283.702 45.2033C284.172 45.1093 284.572 44.9682 284.901 44.7802C285.277 44.5921 285.653 44.3806 286.029 44.1455C286.969 43.6284 287.886 43.0172 288.779 42.312C289.72 41.5598 290.636 40.9251 291.53 40.4079C292.752 38.9035 293.904 37.2345 294.985 35.401C296.113 33.5675 296.866 31.4284 297.242 28.9837C297.289 28.4195 297.336 27.9729 297.383 27.6438C297.477 27.2677 297.571 26.8916 297.665 26.5155C297.759 26.2334 297.829 25.9278 297.876 25.5988C297.97 25.2226 298.064 24.9171 298.158 24.682C298.535 23.4596 298.817 22.3078 299.005 21.2265C299.193 20.1452 299.451 19.0874 299.78 18.0531C299.921 17.677 300.039 17.3009 300.133 16.9248C300.274 16.5017 300.392 16.1256 300.486 15.7965C300.768 15.4674 300.885 15.2323 300.838 15.0913C300.838 14.9502 300.862 14.8327 300.909 14.7387C301.003 14.5036 301.097 14.3156 301.191 14.1745C301.285 13.9865 301.379 13.7749 301.473 13.5398C301.661 13.0697 301.849 12.5055 302.037 11.8474C302.225 11.1422 302.319 10.531 302.319 10.0138C302.178 9.21461 302.061 8.67396 301.967 8.39188C301.92 8.1098 301.825 7.7807 301.684 7.4046C301.543 7.02849 301.332 6.55836 301.05 5.9942C300.768 5.38302 300.439 5.03042 300.062 4.9364C299.545 4.84237 299.052 5.05393 298.582 5.57108C298.111 6.04121 297.759 6.39381 297.524 6.62888C297.43 6.7229 297.289 6.81693 297.101 6.91096C296.96 6.95797 296.842 7.052 296.748 7.19304C296.654 7.28706 296.536 7.4046 296.395 7.54564C296.301 7.68668 296.184 7.82772 296.043 7.96876C295.949 8.06278 295.831 8.18032 295.69 8.32136C295.596 8.4624 295.502 8.60344 295.408 8.74448C295.22 8.97954 295.009 9.23812 294.773 9.5202C294.585 9.75526 294.374 10.0138 294.139 10.2959C293.904 10.531 293.716 10.7896 293.575 11.0716C293.434 11.3537 293.246 11.6123 293.01 11.8474C292.728 12.1764 292.446 12.482 292.164 12.7641C291.882 13.0462 291.671 13.3753 291.53 13.7514C291.012 14.1275 290.519 14.5976 290.049 15.1618C289.814 15.4439 289.602 15.726 289.414 16.008C289.226 16.2901 289.061 16.5957 288.92 16.9248C288.544 17.1128 288.239 17.3949 288.004 17.771C287.816 18.1471 287.58 18.4527 287.298 18.6878C286.875 19.0639 286.617 19.346 286.523 19.534C286.476 19.6751 286.405 19.7926 286.311 19.8866C285.606 20.7329 284.948 21.6261 284.337 22.5664C283.772 23.5067 283.232 24.4704 282.715 25.4577C282.762 25.5988 282.738 25.7398 282.644 25.8808C282.55 25.9749 282.503 26.1394 282.503 26.3745C282.221 26.7506 281.962 27.1972 281.727 27.7143C281.539 28.0905 281.375 28.4666 281.234 28.8427C281.14 29.1718 281.022 29.5244 280.881 29.9005C280.787 30.0885 280.693 30.2531 280.599 30.3941C280.552 30.5351 280.481 30.6762 280.387 30.8172C280.293 31.0993 280.199 31.3814 280.105 31.6635C280.011 31.8985 279.917 32.1336 279.823 32.3687C279.729 32.6037 279.612 32.8388 279.471 33.0739C279.33 33.3089 279.165 33.544 278.977 33.7791C278.883 33.9671 278.812 34.1787 278.765 34.4137C278.765 34.6018 278.718 34.7899 278.624 34.9779C278.53 35.213 278.413 35.4245 278.272 35.6126C278.178 35.8006 278.084 36.0122 277.99 36.2473C277.896 36.4823 277.802 36.7409 277.708 37.023C277.661 37.2581 277.59 37.4931 277.496 37.7282C277.402 37.8692 277.308 37.9868 277.214 38.0808C277.167 38.1748 277.096 38.2688 277.002 38.3629C276.908 38.5039 276.838 38.6685 276.791 38.8565C276.744 38.9975 276.673 39.1386 276.579 39.2796C276.344 39.5147 276.109 39.7263 275.874 39.9143C275.639 40.1024 275.451 40.3609 275.31 40.69C275.404 40.7841 275.475 40.9486 275.522 41.1837C275.616 41.4187 275.71 41.6068 275.804 41.7478Z" fill="white"/>
</mask>
<g mask="url(#mask0_2_27)">
<rect x="-22.1198" y="-39.5382" width="502.478" height="103.304" fill="#C4C4C4"/>
</g>
</svg>
